M48
; DRILL file KiCad 10.0.6 date 2026-09-11T11:31:18
; FORMAT={-:-/ absolute / metric / decimal}
; #@! TF.CreationDate,2026-09-11T11:31:18+03:00
; #@! TF.GenerationSoftware,Kicad,Pcbnew,10.0.6
; #@! TF.FileFunction,Plated,1,2,PTH
FMAT,2
METRIC
; #@! TA.AperFunction,Plated,PTH,ViaDrill
T1C0.500
; #@! TA.AperFunction,Plated,PTH,ViaDrill
T2C1.000
; #@! TA.AperFunction,Plated,PTH,ComponentDrill
T3C1.000
%
G90
G05
T1
X131.0Y-77.0
X133.0Y-75.0
X147.0Y-86.0
X149.0Y-84.0
X163.0Y-95.0
X165.0Y-93.0
X187.0Y-93.0
X189.0Y-95.0
X203.0Y-84.0
X205.0Y-86.0
X219.0Y-75.0
X221.0Y-77.0
T2
X131.0Y-77.0
X131.0Y-77.0
X133.0Y-75.0
X133.0Y-75.0
X147.0Y-86.0
X147.0Y-86.0
X149.0Y-84.0
X149.0Y-84.0
X163.0Y-95.0
X163.0Y-95.0
X165.0Y-93.0
X165.0Y-93.0
X187.0Y-93.0
X187.0Y-93.0
X189.0Y-95.0
X189.0Y-95.0
X203.0Y-84.0
X203.0Y-84.0
X205.0Y-86.0
X205.0Y-86.0
X219.0Y-75.0
X219.0Y-75.0
X221.0Y-77.0
X221.0Y-77.0
T3
X160.76Y-66.0
X163.3Y-66.0
X165.84Y-66.0
X168.38Y-66.0
X170.92Y-66.0
X173.46Y-66.0
X176.0Y-66.0
X178.54Y-66.0
X181.08Y-66.0
X183.62Y-66.0
X186.16Y-66.0
X188.7Y-66.0
X191.24Y-66.0
M30
