%TF.GenerationSoftware,KiCad,Pcbnew,10.0.6*%
%TF.CreationDate,2026-09-11T11:31:16+03:00*%
%TF.ProjectId,cap_pad,6361705f-7061-4642-9e6b-696361645f70,rev?*%
%TF.SameCoordinates,Original*%
%TF.FileFunction,Copper,L1,Top*%
%TF.FilePolarity,Positive*%
%FSLAX46Y46*%
G04 Gerber Fmt 4.6, Leading zero omitted, Abs format (unit mm)*
G04 Created by KiCad (PCBNEW 10.0.6) date 2026-09-11 11:31:16*
%MOMM*%
%LPD*%
G01*
G04 APERTURE LIST*
G04 Aperture macros list*
%AMRoundRect*
0 Rectangle with rounded corners*
0 $1 Rounding radius*
0 $2 $3 $4 $5 $6 $7 $8 $9 X,Y pos of 4 corners*
0 Add a 4 corners polygon primitive as box body*
4,1,4,$2,$3,$4,$5,$6,$7,$8,$9,$2,$3,0*
0 Add four circle primitives for the rounded corners*
1,1,$1+$1,$2,$3*
1,1,$1+$1,$4,$5*
1,1,$1+$1,$6,$7*
1,1,$1+$1,$8,$9*
0 Add four rect primitives between the rounded corners*
20,1,$1+$1,$2,$3,$4,$5,0*
20,1,$1+$1,$4,$5,$6,$7,0*
20,1,$1+$1,$6,$7,$8,$9,0*
20,1,$1+$1,$8,$9,$2,$3,0*%
G04 Aperture macros list end*
%TA.AperFunction,ConnectorPad*%
%ADD10RoundRect,2.500000X0.000000X-7.071068X7.071068X0.000000X0.000000X7.071068X-7.071068X0.000000X0*%
%TD*%
%TA.AperFunction,ComponentPad*%
%ADD11C,1.700000*%
%TD*%
%TA.AperFunction,ConnectorPad*%
%ADD12RoundRect,2.500000X7.071068X0.000000X0.000000X7.071068X-7.071068X0.000000X0.000000X-7.071068X0*%
%TD*%
%TA.AperFunction,ConnectorPad*%
%ADD13RoundRect,2.500000X-7.071068X0.000000X0.000000X-7.071068X7.071068X0.000000X0.000000X7.071068X0*%
%TD*%
%TA.AperFunction,ViaPad*%
%ADD14C,2.500000*%
%TD*%
%TA.AperFunction,ViaPad*%
%ADD15C,2.000000*%
%TD*%
%TA.AperFunction,ViaPad*%
%ADD16C,1.500000*%
%TD*%
G04 APERTURE END LIST*
D10*
%TO.P,J5,1,Pin_1_1*%
%TO.N,Net-(J5-Pin_1)*%
X204000000Y-85000000D03*
%TD*%
%TO.P,J4,1,Pin_1_1*%
%TO.N,Net-(J4-Pin_1)*%
X188000000Y-94000000D03*
%TD*%
D11*
%TO.P,J6,1,Pin_1_1*%
%TO.N,GND*%
X160760000Y-66000000D03*
%TO.P,J6,2,Pin_2_2*%
%TO.N,Net-(J6-Pin_2)*%
X163300000Y-66000000D03*
%TO.P,J6,3,Pin_3_3*%
%TO.N,GND*%
X165840000Y-66000000D03*
%TO.P,J6,4,Pin_4_4*%
%TO.N,Net-(J6-Pin_4)*%
X168380000Y-66000000D03*
%TO.P,J6,5,Pin_5_5*%
%TO.N,GND*%
X170920000Y-66000000D03*
%TO.P,J6,6,Pin_6_6*%
%TO.N,Net-(J6-Pin_6)*%
X173460000Y-66000000D03*
%TO.P,J6,7,Pin_7_7*%
%TO.N,GND*%
X176000000Y-66000000D03*
%TO.P,J6,8,Pin_8_8*%
%TO.N,Net-(J6-Pin_8)*%
X178540000Y-66000000D03*
%TO.P,J6,9,Pin_9_9*%
%TO.N,GND*%
X181080000Y-66000000D03*
%TO.P,J6,10,Pin_10_10*%
%TO.N,Net-(J6-Pin_10)*%
X183620000Y-66000000D03*
%TO.P,J6,11,Pin_11_11*%
%TO.N,GND*%
X186160000Y-66000000D03*
%TO.P,J6,12,Pin_12_12*%
%TO.N,Net-(J6-Pin_12)*%
X188700000Y-66000000D03*
%TO.P,J6,13,Pin_13_13*%
%TO.N,GND*%
X191240000Y-66000000D03*
%TD*%
D12*
%TO.P,J3,1,Pin_1_1*%
%TO.N,Net-(J3-Pin_1)*%
X164000000Y-94000000D03*
%TD*%
D10*
%TO.P,J7,1,Pin_1_1*%
%TO.N,Net-(J7-Pin_1)*%
X220000000Y-76000000D03*
%TD*%
D12*
%TO.P,J1,1,Pin_1_1*%
%TO.N,Net-(J1-Pin_1)*%
X132000000Y-76000000D03*
%TD*%
D13*
%TO.P,J2,1,Pin_1_1*%
%TO.N,Net-(J2-Pin_1)*%
X148000000Y-85000000D03*
%TD*%
D14*
%TO.N,Net-(J1-Pin_1)*%
X131000000Y-77000000D03*
X133000000Y-75000000D03*
%TO.N,Net-(J2-Pin_1)*%
X147000000Y-86000000D03*
X149000000Y-84000000D03*
%TO.N,Net-(J3-Pin_1)*%
X163000000Y-95000000D03*
X165000000Y-93000000D03*
%TO.N,Net-(J4-Pin_1)*%
X187000000Y-93000000D03*
X189000000Y-95000000D03*
%TO.N,Net-(J5-Pin_1)*%
X203000000Y-84000000D03*
X205000000Y-86000000D03*
%TO.N,Net-(J7-Pin_1)*%
X221000000Y-77000000D03*
X219000000Y-75000000D03*
D15*
X219000000Y-75000000D03*
X221000000Y-77000000D03*
%TO.N,Net-(J5-Pin_1)*%
X205000000Y-86000000D03*
X203000000Y-84000000D03*
%TO.N,Net-(J4-Pin_1)*%
X187000000Y-93000000D03*
X189000000Y-95000000D03*
%TO.N,Net-(J3-Pin_1)*%
X163000000Y-95000000D03*
X165000000Y-93000000D03*
%TO.N,Net-(J1-Pin_1)*%
X131000000Y-77000000D03*
X133000000Y-75000000D03*
%TO.N,Net-(J2-Pin_1)*%
X147000000Y-86000000D03*
X149000000Y-84000000D03*
D16*
%TO.N,Net-(J3-Pin_1)*%
X163000000Y-95000000D03*
X165000000Y-93000000D03*
%TO.N,Net-(J5-Pin_1)*%
X203000000Y-84000000D03*
X205000000Y-86000000D03*
%TO.N,Net-(J7-Pin_1)*%
X219000000Y-75000000D03*
X221000000Y-77000000D03*
%TO.N,Net-(J2-Pin_1)*%
X149000000Y-84000000D03*
X147000000Y-86000000D03*
%TO.N,Net-(J4-Pin_1)*%
X187000000Y-93000000D03*
X189000000Y-95000000D03*
%TO.N,Net-(J1-Pin_1)*%
X131000000Y-77000000D03*
X133000000Y-75000000D03*
%TD*%
%TA.AperFunction,Conductor*%
%TO.N,GND*%
G36*
X219517158Y-62500595D02*
G01*
X219941351Y-62517265D01*
X219951024Y-62518026D01*
X220311580Y-62560702D01*
X220370185Y-62567639D01*
X220379801Y-62569162D01*
X220542782Y-62601581D01*
X220793785Y-62651509D01*
X220803221Y-62653774D01*
X221209436Y-62768340D01*
X221209457Y-62768346D01*
X221218717Y-62771354D01*
X221614713Y-62917445D01*
X221623709Y-62921171D01*
X222007023Y-63097881D01*
X222015675Y-63102289D01*
X222383966Y-63308541D01*
X222392235Y-63313609D01*
X222743193Y-63548110D01*
X222751060Y-63553826D01*
X223082527Y-63815131D01*
X223089931Y-63821454D01*
X223401681Y-64109629D01*
X223405191Y-64113005D01*
X231386998Y-72094812D01*
X231390373Y-72098321D01*
X231678552Y-72410069D01*
X231684875Y-72417473D01*
X231946176Y-72748929D01*
X231951899Y-72756806D01*
X232186395Y-73107751D01*
X232191482Y-73116053D01*
X232397710Y-73484298D01*
X232402131Y-73492973D01*
X232578842Y-73876289D01*
X232582568Y-73885285D01*
X232728655Y-74281273D01*
X232731663Y-74290532D01*
X232846230Y-74696757D01*
X232848503Y-74706225D01*
X232930842Y-75120177D01*
X232932366Y-75129794D01*
X232981977Y-75548965D01*
X232982740Y-75558671D01*
X232999403Y-75982833D01*
X232999499Y-75987701D01*
X232999499Y-76061158D01*
X232999500Y-76061171D01*
X232999500Y-77012294D01*
X232999404Y-77017162D01*
X232982738Y-77441337D01*
X232981974Y-77451044D01*
X232932364Y-77870191D01*
X232930841Y-77879807D01*
X232848498Y-78293771D01*
X232846225Y-78303239D01*
X232731659Y-78709460D01*
X232728651Y-78718720D01*
X232582560Y-79114716D01*
X232578834Y-79123711D01*
X232402125Y-79507023D01*
X232397706Y-79515694D01*
X232191471Y-79883952D01*
X232186390Y-79892245D01*
X231951895Y-80243192D01*
X231946172Y-80251068D01*
X231684867Y-80582533D01*
X231678544Y-80589937D01*
X231390384Y-80901666D01*
X231387009Y-80905176D01*
X206950044Y-105342142D01*
X206950043Y-105342143D01*
X206905186Y-105386999D01*
X206901678Y-105390373D01*
X206589930Y-105678552D01*
X206582526Y-105684875D01*
X206251070Y-105946176D01*
X206243193Y-105951899D01*
X205892248Y-106186395D01*
X205883946Y-106191482D01*
X205515701Y-106397710D01*
X205507026Y-106402131D01*
X205123710Y-106578842D01*
X205114714Y-106582568D01*
X204718726Y-106728655D01*
X204709467Y-106731663D01*
X204303242Y-106846230D01*
X204293774Y-106848503D01*
X203879822Y-106930842D01*
X203870205Y-106932366D01*
X203451034Y-106981977D01*
X203441328Y-106982740D01*
X203017166Y-106999403D01*
X203012298Y-106999499D01*
X202941235Y-106999499D01*
X202941219Y-106999500D01*
X149527731Y-106999500D01*
X149527715Y-106999499D01*
X149456645Y-106999499D01*
X149451833Y-106999406D01*
X149032406Y-106983117D01*
X149022808Y-106982370D01*
X148608318Y-106933873D01*
X148598807Y-106932384D01*
X148189318Y-106851876D01*
X148179951Y-106849653D01*
X148175824Y-106848503D01*
X148131180Y-106836061D01*
X147777963Y-106737625D01*
X147768796Y-106734683D01*
X147376684Y-106591797D01*
X147367774Y-106588152D01*
X146987948Y-106415285D01*
X146979347Y-106410960D01*
X146614068Y-106209144D01*
X146605829Y-106204165D01*
X146586572Y-106191482D01*
X146257308Y-105974619D01*
X146249480Y-105969016D01*
X145919816Y-105713121D01*
X145912450Y-105706931D01*
X145888184Y-105684875D01*
X145601848Y-105424612D01*
X145598370Y-105421326D01*
X145553068Y-105376818D01*
X145553066Y-105376817D01*
X145546143Y-105370015D01*
X145546125Y-105370000D01*
X144733434Y-104571567D01*
X120692835Y-80952732D01*
X120692834Y-80952731D01*
X120647581Y-80908272D01*
X120644139Y-80904753D01*
X120350099Y-80591979D01*
X120343645Y-80584543D01*
X120076885Y-80251346D01*
X120071041Y-80243421D01*
X119831557Y-79890105D01*
X119826361Y-79881742D01*
X119695705Y-79651556D01*
X119615664Y-79510540D01*
X119611157Y-79501811D01*
X119430565Y-79115039D01*
X119426761Y-79105968D01*
X119277438Y-78706119D01*
X119274362Y-78696766D01*
X119157231Y-78286321D01*
X119154907Y-78276753D01*
X119129678Y-78151368D01*
X119070706Y-77858289D01*
X119069154Y-77848601D01*
X119018421Y-77424778D01*
X119017641Y-77414969D01*
X119012141Y-77276553D01*
X119000598Y-76986024D01*
X119000500Y-76981101D01*
X119000500Y-75987704D01*
X119000596Y-75982835D01*
X119007253Y-75813430D01*
X121428433Y-75813430D01*
X121428433Y-76186569D01*
X121468093Y-76557589D01*
X121468094Y-76557595D01*
X121546967Y-76922289D01*
X121546970Y-76922302D01*
X121664159Y-77276543D01*
X121664161Y-77276549D01*
X121664163Y-77276553D01*
X121818348Y-77616345D01*
X122007777Y-77937823D01*
X122230304Y-78237345D01*
X122378361Y-78399884D01*
X122378383Y-78399906D01*
X122378399Y-78399923D01*
X129600076Y-85621600D01*
X129600093Y-85621616D01*
X129600116Y-85621639D01*
X129762655Y-85769696D01*
X130062177Y-85992223D01*
X130383655Y-86181652D01*
X130723447Y-86335837D01*
X131077702Y-86453031D01*
X131442408Y-86531906D01*
X131813431Y-86571567D01*
X132186569Y-86571567D01*
X132557592Y-86531906D01*
X132922298Y-86453031D01*
X133276553Y-86335837D01*
X133616345Y-86181652D01*
X133937823Y-85992223D01*
X134237345Y-85769696D01*
X134399884Y-85621639D01*
X134834954Y-85186569D01*
X135299076Y-84722448D01*
X141621600Y-78399923D01*
X141621639Y-78399884D01*
X141769696Y-78237345D01*
X141992223Y-77937823D01*
X142181652Y-77616345D01*
X142335837Y-77276553D01*
X142453031Y-76922298D01*
X142531906Y-76557592D01*
X142571567Y-76186569D01*
X142571567Y-75813431D01*
X142531906Y-75442408D01*
X142453031Y-75077702D01*
X142335837Y-74723447D01*
X142181652Y-74383655D01*
X141992223Y-74062177D01*
X141769696Y-73762655D01*
X141621639Y-73600116D01*
X141621616Y-73600093D01*
X141621600Y-73600076D01*
X138848443Y-70826920D01*
X138814958Y-70765597D01*
X138819942Y-70695905D01*
X138848443Y-70651558D01*
X139463683Y-70036319D01*
X139525006Y-70002834D01*
X139551364Y-70000000D01*
X162000000Y-70000000D01*
X164500000Y-67500000D01*
X164500000Y-67468366D01*
X164519685Y-67401327D01*
X164536319Y-67380685D01*
X164694260Y-67222743D01*
X164694265Y-67222738D01*
X164811132Y-67070433D01*
X164867557Y-67029232D01*
X164937303Y-67025077D01*
X164982391Y-67045603D01*
X165132442Y-67154620D01*
X165321782Y-67251095D01*
X165523871Y-67316757D01*
X165590000Y-67327231D01*
X165590000Y-66433012D01*
X165647007Y-66465925D01*
X165774174Y-66500000D01*
X165905826Y-66500000D01*
X166032993Y-66465925D01*
X166090000Y-66433012D01*
X166090000Y-67327230D01*
X166156126Y-67316757D01*
X166156129Y-67316757D01*
X166358217Y-67251095D01*
X166547554Y-67154622D01*
X166697606Y-67045603D01*
X166763413Y-67022123D01*
X166831467Y-67037948D01*
X166868868Y-67070434D01*
X166874630Y-67077943D01*
X166985733Y-67222736D01*
X166985739Y-67222743D01*
X167043816Y-67280820D01*
X167077301Y-67342143D01*
X167072317Y-67411835D01*
X167043816Y-67456182D01*
X154848442Y-79651556D01*
X154787119Y-79685041D01*
X154717427Y-79680057D01*
X154673080Y-79651556D01*
X150399923Y-75378399D01*
X150399906Y-75378383D01*
X150399884Y-75378361D01*
X150237345Y-75230304D01*
X150031936Y-75077697D01*
X149937833Y-75007784D01*
X149937830Y-75007782D01*
X149937823Y-75007777D01*
X149616345Y-74818348D01*
X149276553Y-74664163D01*
X149276549Y-74664161D01*
X149276543Y-74664159D01*
X148922302Y-74546970D01*
X148922289Y-74546967D01*
X148557595Y-74468094D01*
X148557589Y-74468093D01*
X148186569Y-74428433D01*
X147813431Y-74428433D01*
X147813430Y-74428433D01*
X147442410Y-74468093D01*
X147442404Y-74468094D01*
X147077710Y-74546967D01*
X147077697Y-74546970D01*
X146723456Y-74664159D01*
X146723447Y-74664163D01*
X146383655Y-74818348D01*
X146062177Y-75007777D01*
X146062173Y-75007779D01*
X146062166Y-75007784D01*
X145762652Y-75230306D01*
X145697158Y-75289965D01*
X145600116Y-75378361D01*
X145600110Y-75378367D01*
X145600076Y-75378399D01*
X138378399Y-82600076D01*
X138378367Y-82600110D01*
X138378361Y-82600116D01*
X138315909Y-82668676D01*
X138230306Y-82762652D01*
X138007784Y-83062166D01*
X138007779Y-83062173D01*
X138007777Y-83062177D01*
X137818348Y-83383655D01*
X137780033Y-83468094D01*
X137664163Y-83723447D01*
X137664159Y-83723456D01*
X137546970Y-84077697D01*
X137546967Y-84077710D01*
X137468094Y-84442404D01*
X137468093Y-84442410D01*
X137428433Y-84813430D01*
X137428433Y-85186569D01*
X137468093Y-85557589D01*
X137468094Y-85557595D01*
X137546967Y-85922289D01*
X137546970Y-85922302D01*
X137664159Y-86276543D01*
X137664161Y-86276549D01*
X137664163Y-86276553D01*
X137818348Y-86616345D01*
X138007777Y-86937823D01*
X138230304Y-87237345D01*
X138378361Y-87399884D01*
X138378383Y-87399906D01*
X138378399Y-87399923D01*
X145600076Y-94621600D01*
X145600093Y-94621616D01*
X145600116Y-94621639D01*
X145762655Y-94769696D01*
X146062177Y-94992223D01*
X146383655Y-95181652D01*
X146723447Y-95335837D01*
X147077702Y-95453031D01*
X147442408Y-95531906D01*
X147813431Y-95571567D01*
X148186569Y-95571567D01*
X148557592Y-95531906D01*
X148922298Y-95453031D01*
X149276553Y-95335837D01*
X149616345Y-95181652D01*
X149937823Y-94992223D01*
X150237345Y-94769696D01*
X150399884Y-94621639D01*
X150834954Y-94186569D01*
X151299076Y-93722448D01*
X157621600Y-87399923D01*
X157621639Y-87399884D01*
X157769696Y-87237345D01*
X157992223Y-86937823D01*
X158181652Y-86616345D01*
X158335837Y-86276553D01*
X158453031Y-85922298D01*
X158531906Y-85557592D01*
X158571567Y-85186569D01*
X158571567Y-84813431D01*
X158531906Y-84442408D01*
X158453031Y-84077702D01*
X158335837Y-83723447D01*
X158181652Y-83383655D01*
X157992223Y-83062177D01*
X157769696Y-82762655D01*
X157621639Y-82600116D01*
X157621616Y-82600093D01*
X157621600Y-82600076D01*
X156328873Y-81307350D01*
X156295388Y-81246027D01*
X156300372Y-81176335D01*
X156329006Y-81131853D01*
X169250000Y-68250772D01*
X169250000Y-67706069D01*
X169269685Y-67639030D01*
X169311998Y-67598683D01*
X169410289Y-67541936D01*
X169602738Y-67394265D01*
X169774265Y-67222738D01*
X169891132Y-67070433D01*
X169947557Y-67029232D01*
X170017303Y-67025077D01*
X170062391Y-67045603D01*
X170212442Y-67154620D01*
X170401782Y-67251095D01*
X170603871Y-67316757D01*
X170670000Y-67327231D01*
X170670000Y-66433012D01*
X170727007Y-66465925D01*
X170854174Y-66500000D01*
X170985826Y-66500000D01*
X171112993Y-66465925D01*
X171170000Y-66433012D01*
X171170000Y-67327230D01*
X171236126Y-67316757D01*
X171236129Y-67316757D01*
X171438217Y-67251095D01*
X171627554Y-67154622D01*
X171777606Y-67045603D01*
X171843413Y-67022123D01*
X171911467Y-67037948D01*
X171948868Y-67070434D01*
X171954630Y-67077943D01*
X172065733Y-67222736D01*
X172065739Y-67222743D01*
X172213681Y-67370685D01*
X172247166Y-67432008D01*
X172250000Y-67458366D01*
X172250000Y-84198637D01*
X172230315Y-84265676D01*
X172213681Y-84286318D01*
X169348442Y-87151556D01*
X169287119Y-87185041D01*
X169217427Y-87180057D01*
X169173080Y-87151556D01*
X166399923Y-84378399D01*
X166399906Y-84378383D01*
X166399884Y-84378361D01*
X166237345Y-84230304D01*
X166031936Y-84077697D01*
X165937833Y-84007784D01*
X165937830Y-84007782D01*
X165937823Y-84007777D01*
X165616345Y-83818348D01*
X165276553Y-83664163D01*
X165276549Y-83664161D01*
X165276543Y-83664159D01*
X164922302Y-83546970D01*
X164922289Y-83546967D01*
X164557595Y-83468094D01*
X164557589Y-83468093D01*
X164186569Y-83428433D01*
X163813431Y-83428433D01*
X163813430Y-83428433D01*
X163442410Y-83468093D01*
X163442404Y-83468094D01*
X163077710Y-83546967D01*
X163077697Y-83546970D01*
X162723456Y-83664159D01*
X162723447Y-83664163D01*
X162383655Y-83818348D01*
X162062177Y-84007777D01*
X162062173Y-84007779D01*
X162062166Y-84007784D01*
X161762652Y-84230306D01*
X161741032Y-84250000D01*
X161600116Y-84378361D01*
X161600110Y-84378367D01*
X161600076Y-84378399D01*
X154378399Y-91600076D01*
X154378367Y-91600110D01*
X154378361Y-91600116D01*
X154315909Y-91668676D01*
X154230306Y-91762652D01*
X154007784Y-92062166D01*
X154007779Y-92062173D01*
X154007777Y-92062177D01*
X153818350Y-92383652D01*
X153818348Y-92383656D01*
X153664163Y-92723447D01*
X153664159Y-92723456D01*
X153546970Y-93077697D01*
X153546967Y-93077710D01*
X153468094Y-93442404D01*
X153468093Y-93442410D01*
X153428433Y-93813430D01*
X153428433Y-94186569D01*
X153468093Y-94557589D01*
X153468094Y-94557595D01*
X153546967Y-94922289D01*
X153546970Y-94922302D01*
X153664159Y-95276543D01*
X153664161Y-95276549D01*
X153664163Y-95276553D01*
X153818348Y-95616345D01*
X154007777Y-95937823D01*
X154230304Y-96237345D01*
X154378361Y-96399884D01*
X154378383Y-96399906D01*
X154378399Y-96399923D01*
X161600076Y-103621600D01*
X161600093Y-103621616D01*
X161600116Y-103621639D01*
X161762655Y-103769696D01*
X162062177Y-103992223D01*
X162383655Y-104181652D01*
X162723447Y-104335837D01*
X163077702Y-104453031D01*
X163442408Y-104531906D01*
X163813431Y-104571567D01*
X164186569Y-104571567D01*
X164557592Y-104531906D01*
X164922298Y-104453031D01*
X165276553Y-104335837D01*
X165616345Y-104181652D01*
X165937823Y-103992223D01*
X166237345Y-103769696D01*
X166399884Y-103621639D01*
X173621639Y-96399884D01*
X173769696Y-96237345D01*
X173992223Y-95937823D01*
X174181652Y-95616345D01*
X174335837Y-95276553D01*
X174453031Y-94922298D01*
X174531906Y-94557592D01*
X174571567Y-94186569D01*
X174571567Y-93813431D01*
X174531906Y-93442408D01*
X174453031Y-93077702D01*
X174335837Y-92723447D01*
X174181652Y-92383655D01*
X173992223Y-92062177D01*
X173769696Y-91762655D01*
X173621639Y-91600116D01*
X173621616Y-91600093D01*
X173621600Y-91600076D01*
X170848443Y-88826919D01*
X170814958Y-88765596D01*
X170819942Y-88695904D01*
X170848441Y-88651559D01*
X174250000Y-85250002D01*
X174250000Y-67752258D01*
X174269685Y-67685219D01*
X174312000Y-67644871D01*
X174322117Y-67639030D01*
X174490289Y-67541936D01*
X174682738Y-67394265D01*
X174854265Y-67222738D01*
X174971132Y-67070433D01*
X175027557Y-67029232D01*
X175097303Y-67025077D01*
X175142391Y-67045603D01*
X175292442Y-67154620D01*
X175481782Y-67251095D01*
X175683871Y-67316757D01*
X175750000Y-67327231D01*
X175750000Y-66433012D01*
X175807007Y-66465925D01*
X175934174Y-66500000D01*
X176065826Y-66500000D01*
X176192993Y-66465925D01*
X176250000Y-66433012D01*
X176250000Y-67327231D01*
X176316126Y-67316757D01*
X176316129Y-67316757D01*
X176518217Y-67251095D01*
X176707554Y-67154622D01*
X176857606Y-67045603D01*
X176923413Y-67022123D01*
X176991467Y-67037948D01*
X177028868Y-67070434D01*
X177034630Y-67077943D01*
X177145733Y-67222736D01*
X177145739Y-67222743D01*
X177317256Y-67394260D01*
X177317263Y-67394266D01*
X177430321Y-67481018D01*
X177509711Y-67541936D01*
X177677883Y-67639030D01*
X177688000Y-67644871D01*
X177736216Y-67695438D01*
X177750000Y-67752258D01*
X177750000Y-85250000D01*
X181151557Y-88651557D01*
X181185042Y-88712880D01*
X181180058Y-88782572D01*
X181151557Y-88826919D01*
X178378399Y-91600076D01*
X178378367Y-91600109D01*
X178378361Y-91600116D01*
X178315909Y-91668676D01*
X178230306Y-91762652D01*
X178007784Y-92062166D01*
X178007779Y-92062173D01*
X178007777Y-92062177D01*
X177818350Y-92383652D01*
X177818348Y-92383656D01*
X177664163Y-92723447D01*
X177664159Y-92723456D01*
X177546970Y-93077697D01*
X177546967Y-93077710D01*
X177468094Y-93442404D01*
X177468093Y-93442410D01*
X177428433Y-93813430D01*
X177428433Y-94186569D01*
X177468093Y-94557589D01*
X177468094Y-94557595D01*
X177546967Y-94922289D01*
X177546970Y-94922302D01*
X177664159Y-95276543D01*
X177664161Y-95276549D01*
X177664163Y-95276553D01*
X177818348Y-95616345D01*
X178007777Y-95937823D01*
X178230304Y-96237345D01*
X178378361Y-96399884D01*
X178378383Y-96399906D01*
X178378399Y-96399923D01*
X185600076Y-103621600D01*
X185600093Y-103621616D01*
X185600116Y-103621639D01*
X185762655Y-103769696D01*
X186062177Y-103992223D01*
X186383655Y-104181652D01*
X186723447Y-104335837D01*
X187077702Y-104453031D01*
X187442408Y-104531906D01*
X187813431Y-104571567D01*
X188186569Y-104571567D01*
X188557592Y-104531906D01*
X188922298Y-104453031D01*
X189276553Y-104335837D01*
X189616345Y-104181652D01*
X189937823Y-103992223D01*
X190237345Y-103769696D01*
X190399884Y-103621639D01*
X197621639Y-96399884D01*
X197769696Y-96237345D01*
X197992223Y-95937823D01*
X198181652Y-95616345D01*
X198335837Y-95276553D01*
X198453031Y-94922298D01*
X198531906Y-94557592D01*
X198571567Y-94186569D01*
X198571567Y-93813431D01*
X198531906Y-93442408D01*
X198453031Y-93077702D01*
X198335837Y-92723447D01*
X198181652Y-92383655D01*
X197992223Y-92062177D01*
X197769696Y-91762655D01*
X197621639Y-91600116D01*
X197621616Y-91600093D01*
X197621600Y-91600076D01*
X190399923Y-84378399D01*
X190399906Y-84378383D01*
X190399884Y-84378361D01*
X190237345Y-84230304D01*
X190031936Y-84077697D01*
X189937833Y-84007784D01*
X189937830Y-84007782D01*
X189937823Y-84007777D01*
X189616345Y-83818348D01*
X189276553Y-83664163D01*
X189276549Y-83664161D01*
X189276543Y-83664159D01*
X188922302Y-83546970D01*
X188922289Y-83546967D01*
X188557595Y-83468094D01*
X188557589Y-83468093D01*
X188186569Y-83428433D01*
X187813431Y-83428433D01*
X187813430Y-83428433D01*
X187442410Y-83468093D01*
X187442404Y-83468094D01*
X187077710Y-83546967D01*
X187077697Y-83546970D01*
X186723456Y-83664159D01*
X186723447Y-83664163D01*
X186383655Y-83818348D01*
X186062177Y-84007777D01*
X186062173Y-84007779D01*
X186062166Y-84007784D01*
X185762652Y-84230306D01*
X185741032Y-84250000D01*
X185600116Y-84378361D01*
X185600110Y-84378367D01*
X185600076Y-84378399D01*
X182826919Y-87151557D01*
X182765596Y-87185042D01*
X182695904Y-87180058D01*
X182651557Y-87151557D01*
X179786319Y-84286319D01*
X179752834Y-84224996D01*
X179750000Y-84198638D01*
X179750000Y-67458366D01*
X179769685Y-67391327D01*
X179786319Y-67370685D01*
X179934260Y-67222743D01*
X179934265Y-67222738D01*
X180051132Y-67070433D01*
X180107557Y-67029232D01*
X180177303Y-67025077D01*
X180222391Y-67045603D01*
X180372442Y-67154620D01*
X180561782Y-67251095D01*
X180763871Y-67316757D01*
X180830000Y-67327231D01*
X180830000Y-66433012D01*
X180887007Y-66465925D01*
X181014174Y-66500000D01*
X181145826Y-66500000D01*
X181272993Y-66465925D01*
X181330000Y-66433012D01*
X181330000Y-67327230D01*
X181396126Y-67316757D01*
X181396129Y-67316757D01*
X181598217Y-67251095D01*
X181787554Y-67154622D01*
X181937606Y-67045603D01*
X182003413Y-67022123D01*
X182071467Y-67037948D01*
X182108868Y-67070434D01*
X182114630Y-67077943D01*
X182225733Y-67222736D01*
X182225739Y-67222743D01*
X182397256Y-67394260D01*
X182397262Y-67394265D01*
X182589711Y-67541936D01*
X182688001Y-67598683D01*
X182736215Y-67649248D01*
X182750000Y-67706069D01*
X182750000Y-68250000D01*
X195651557Y-81151557D01*
X195685042Y-81212880D01*
X195680058Y-81282572D01*
X195651557Y-81326919D01*
X194378399Y-82600076D01*
X194378367Y-82600109D01*
X194378361Y-82600116D01*
X194315909Y-82668676D01*
X194230306Y-82762652D01*
X194007784Y-83062166D01*
X194007779Y-83062173D01*
X194007777Y-83062177D01*
X193818348Y-83383655D01*
X193780033Y-83468094D01*
X193664163Y-83723447D01*
X193664159Y-83723456D01*
X193546970Y-84077697D01*
X193546967Y-84077710D01*
X193468094Y-84442404D01*
X193468093Y-84442410D01*
X193428433Y-84813430D01*
X193428433Y-85186569D01*
X193468093Y-85557589D01*
X193468094Y-85557595D01*
X193546967Y-85922289D01*
X193546970Y-85922302D01*
X193664159Y-86276543D01*
X193664161Y-86276549D01*
X193664163Y-86276553D01*
X193818348Y-86616345D01*
X194007777Y-86937823D01*
X194230304Y-87237345D01*
X194378361Y-87399884D01*
X194378383Y-87399906D01*
X194378399Y-87399923D01*
X201600076Y-94621600D01*
X201600093Y-94621616D01*
X201600116Y-94621639D01*
X201762655Y-94769696D01*
X202062177Y-94992223D01*
X202383655Y-95181652D01*
X202723447Y-95335837D01*
X203077702Y-95453031D01*
X203442408Y-95531906D01*
X203813431Y-95571567D01*
X204186569Y-95571567D01*
X204557592Y-95531906D01*
X204922298Y-95453031D01*
X205276553Y-95335837D01*
X205616345Y-95181652D01*
X205937823Y-94992223D01*
X206237345Y-94769696D01*
X206399884Y-94621639D01*
X213621639Y-87399884D01*
X213769696Y-87237345D01*
X213992223Y-86937823D01*
X214181652Y-86616345D01*
X214335837Y-86276553D01*
X214453031Y-85922298D01*
X214531906Y-85557592D01*
X214571567Y-85186569D01*
X214571567Y-84813431D01*
X214531906Y-84442408D01*
X214453031Y-84077702D01*
X214335837Y-83723447D01*
X214181652Y-83383655D01*
X213992223Y-83062177D01*
X213769696Y-82762655D01*
X213621639Y-82600116D01*
X213621616Y-82600093D01*
X213621600Y-82600076D01*
X206399923Y-75378399D01*
X206399906Y-75378383D01*
X206399884Y-75378361D01*
X206237345Y-75230304D01*
X206031936Y-75077697D01*
X205937833Y-75007784D01*
X205937830Y-75007782D01*
X205937823Y-75007777D01*
X205616345Y-74818348D01*
X205276553Y-74664163D01*
X205276549Y-74664161D01*
X205276543Y-74664159D01*
X204922302Y-74546970D01*
X204922289Y-74546967D01*
X204557595Y-74468094D01*
X204557589Y-74468093D01*
X204186569Y-74428433D01*
X203813431Y-74428433D01*
X203813430Y-74428433D01*
X203442410Y-74468093D01*
X203442404Y-74468094D01*
X203077710Y-74546967D01*
X203077697Y-74546970D01*
X202723456Y-74664159D01*
X202723447Y-74664163D01*
X202383655Y-74818348D01*
X202062177Y-75007777D01*
X202062173Y-75007779D01*
X202062166Y-75007784D01*
X201762652Y-75230306D01*
X201697158Y-75289965D01*
X201600116Y-75378361D01*
X201600110Y-75378367D01*
X201600076Y-75378399D01*
X197326919Y-79651557D01*
X197265596Y-79685042D01*
X197195904Y-79680058D01*
X197151557Y-79651557D01*
X184956182Y-67456182D01*
X184922697Y-67394859D01*
X184927681Y-67325167D01*
X184956179Y-67280823D01*
X185014265Y-67222738D01*
X185131132Y-67070433D01*
X185187557Y-67029232D01*
X185257303Y-67025077D01*
X185302391Y-67045603D01*
X185452442Y-67154620D01*
X185641782Y-67251095D01*
X185843871Y-67316757D01*
X185910000Y-67327231D01*
X185910000Y-66433012D01*
X185967007Y-66465925D01*
X186094174Y-66500000D01*
X186225826Y-66500000D01*
X186352993Y-66465925D01*
X186410000Y-66433012D01*
X186410000Y-67327231D01*
X186476126Y-67316757D01*
X186476129Y-67316757D01*
X186678217Y-67251095D01*
X186867554Y-67154622D01*
X187017606Y-67045603D01*
X187083413Y-67022123D01*
X187151467Y-67037948D01*
X187188868Y-67070434D01*
X187194630Y-67077943D01*
X187305733Y-67222736D01*
X187305739Y-67222743D01*
X187477256Y-67394260D01*
X187477263Y-67394266D01*
X187669711Y-67541936D01*
X187699876Y-67559352D01*
X187748091Y-67609919D01*
X187761870Y-67665474D01*
X187762524Y-67729680D01*
X190020738Y-69987895D01*
X190053982Y-69987912D01*
X212448678Y-69999972D01*
X212515706Y-70019693D01*
X212536291Y-70036291D01*
X213151557Y-70651557D01*
X213185042Y-70712880D01*
X213180058Y-70782572D01*
X213151557Y-70826919D01*
X210378399Y-73600076D01*
X210378367Y-73600109D01*
X210378361Y-73600116D01*
X210315909Y-73668676D01*
X210230306Y-73762652D01*
X210007784Y-74062166D01*
X210007779Y-74062173D01*
X210007777Y-74062177D01*
X209818348Y-74383655D01*
X209780033Y-74468094D01*
X209664163Y-74723447D01*
X209664159Y-74723456D01*
X209546970Y-75077697D01*
X209546967Y-75077710D01*
X209468094Y-75442404D01*
X209468093Y-75442410D01*
X209428433Y-75813430D01*
X209428433Y-76186569D01*
X209468093Y-76557589D01*
X209468094Y-76557595D01*
X209546967Y-76922289D01*
X209546970Y-76922302D01*
X209664159Y-77276543D01*
X209664161Y-77276549D01*
X209664163Y-77276553D01*
X209818348Y-77616345D01*
X210007777Y-77937823D01*
X210230304Y-78237345D01*
X210378361Y-78399884D01*
X210378383Y-78399906D01*
X210378399Y-78399923D01*
X217600076Y-85621600D01*
X217600093Y-85621616D01*
X217600116Y-85621639D01*
X217762655Y-85769696D01*
X218062177Y-85992223D01*
X218383655Y-86181652D01*
X218723447Y-86335837D01*
X219077702Y-86453031D01*
X219442408Y-86531906D01*
X219813431Y-86571567D01*
X220186569Y-86571567D01*
X220557592Y-86531906D01*
X220922298Y-86453031D01*
X221276553Y-86335837D01*
X221616345Y-86181652D01*
X221937823Y-85992223D01*
X222237345Y-85769696D01*
X222399884Y-85621639D01*
X229621639Y-78399884D01*
X229769696Y-78237345D01*
X229992223Y-77937823D01*
X230181652Y-77616345D01*
X230335837Y-77276553D01*
X230453031Y-76922298D01*
X230531906Y-76557592D01*
X230571567Y-76186569D01*
X230571567Y-75813431D01*
X230531906Y-75442408D01*
X230453031Y-75077702D01*
X230335837Y-74723447D01*
X230181652Y-74383655D01*
X229992223Y-74062177D01*
X229769696Y-73762655D01*
X229621639Y-73600116D01*
X229621616Y-73600093D01*
X229621600Y-73600076D01*
X222399923Y-66378399D01*
X222399906Y-66378383D01*
X222399884Y-66378361D01*
X222237345Y-66230304D01*
X222015957Y-66065826D01*
X221937833Y-66007784D01*
X221937830Y-66007782D01*
X221937823Y-66007777D01*
X221616345Y-65818348D01*
X221276553Y-65664163D01*
X221276549Y-65664161D01*
X221276543Y-65664159D01*
X220922302Y-65546970D01*
X220922289Y-65546967D01*
X220557595Y-65468094D01*
X220557589Y-65468093D01*
X220186569Y-65428433D01*
X219813431Y-65428433D01*
X219813430Y-65428433D01*
X219442410Y-65468093D01*
X219442404Y-65468094D01*
X219077710Y-65546967D01*
X219077697Y-65546970D01*
X218723456Y-65664159D01*
X218723447Y-65664163D01*
X218383655Y-65818348D01*
X218062177Y-66007777D01*
X218062173Y-66007779D01*
X218062166Y-66007784D01*
X217762652Y-66230306D01*
X217741032Y-66250000D01*
X217600116Y-66378361D01*
X217600110Y-66378367D01*
X217600076Y-66378399D01*
X214826919Y-69151557D01*
X214765596Y-69185042D01*
X214695904Y-69180058D01*
X214651557Y-69151557D01*
X213500000Y-68000000D01*
X191051362Y-68000000D01*
X190984323Y-67980315D01*
X190963681Y-67963681D01*
X190264891Y-67264891D01*
X190231406Y-67203568D01*
X190236390Y-67133876D01*
X190278262Y-67077943D01*
X190343726Y-67053526D01*
X190411999Y-67068378D01*
X190425457Y-67076892D01*
X190532442Y-67154620D01*
X190721782Y-67251095D01*
X190923871Y-67316757D01*
X190990000Y-67327231D01*
X190990000Y-66433012D01*
X191047007Y-66465925D01*
X191174174Y-66500000D01*
X191305826Y-66500000D01*
X191432993Y-66465925D01*
X191490000Y-66433012D01*
X191490000Y-67327230D01*
X191556126Y-67316757D01*
X191556129Y-67316757D01*
X191758217Y-67251095D01*
X191947557Y-67154620D01*
X192119459Y-67029727D01*
X192119464Y-67029723D01*
X192269723Y-66879464D01*
X192269727Y-66879459D01*
X192394620Y-66707557D01*
X192491095Y-66518217D01*
X192556757Y-66316129D01*
X192556757Y-66316126D01*
X192567231Y-66250000D01*
X191673012Y-66250000D01*
X191705925Y-66192993D01*
X191740000Y-66065826D01*
X191740000Y-65934174D01*
X191705925Y-65807007D01*
X191673012Y-65750000D01*
X192567231Y-65750000D01*
X192556757Y-65683873D01*
X192556757Y-65683870D01*
X192491095Y-65481782D01*
X192394620Y-65292442D01*
X192269727Y-65120540D01*
X192269723Y-65120535D01*
X192119464Y-64970276D01*
X192119459Y-64970272D01*
X191947557Y-64845379D01*
X191758215Y-64748903D01*
X191556124Y-64683241D01*
X191490000Y-64672768D01*
X191490000Y-65566988D01*
X191432993Y-65534075D01*
X191305826Y-65500000D01*
X191174174Y-65500000D01*
X191047007Y-65534075D01*
X190990000Y-65566988D01*
X190990000Y-64672768D01*
X190989999Y-64672768D01*
X190923875Y-64683241D01*
X190721784Y-64748903D01*
X190532446Y-64845376D01*
X190382391Y-64954397D01*
X190316584Y-64977876D01*
X190248530Y-64962050D01*
X190211130Y-64929564D01*
X190094266Y-64777263D01*
X190094260Y-64777256D01*
X189922743Y-64605739D01*
X189922736Y-64605733D01*
X189730293Y-64458067D01*
X189730292Y-64458066D01*
X189730289Y-64458064D01*
X189520212Y-64336776D01*
X189520205Y-64336773D01*
X189296104Y-64243947D01*
X189061785Y-64181161D01*
X188821289Y-64149500D01*
X188821288Y-64149500D01*
X188578712Y-64149500D01*
X188578711Y-64149500D01*
X188338214Y-64181161D01*
X188103895Y-64243947D01*
X187879794Y-64336773D01*
X187879785Y-64336777D01*
X187669706Y-64458067D01*
X187477263Y-64605733D01*
X187477256Y-64605739D01*
X187305739Y-64777256D01*
X187305733Y-64777263D01*
X187188869Y-64929564D01*
X187132441Y-64970767D01*
X187062695Y-64974922D01*
X187017608Y-64954396D01*
X186867557Y-64845379D01*
X186678215Y-64748903D01*
X186476124Y-64683241D01*
X186410000Y-64672768D01*
X186410000Y-65566988D01*
X186352993Y-65534075D01*
X186225826Y-65500000D01*
X186094174Y-65500000D01*
X185967007Y-65534075D01*
X185910000Y-65566988D01*
X185910000Y-64672768D01*
X185909999Y-64672768D01*
X185843875Y-64683241D01*
X185641784Y-64748903D01*
X185452446Y-64845376D01*
X185302391Y-64954397D01*
X185236584Y-64977876D01*
X185168530Y-64962050D01*
X185131130Y-64929564D01*
X185014266Y-64777263D01*
X185014260Y-64777256D01*
X184842743Y-64605739D01*
X184842736Y-64605733D01*
X184650293Y-64458067D01*
X184650292Y-64458066D01*
X184650289Y-64458064D01*
X184440212Y-64336776D01*
X184440205Y-64336773D01*
X184216104Y-64243947D01*
X183981785Y-64181161D01*
X183741289Y-64149500D01*
X183741288Y-64149500D01*
X183498712Y-64149500D01*
X183498711Y-64149500D01*
X183258214Y-64181161D01*
X183023895Y-64243947D01*
X182799794Y-64336773D01*
X182799785Y-64336777D01*
X182589706Y-64458067D01*
X182397263Y-64605733D01*
X182397256Y-64605739D01*
X182225739Y-64777256D01*
X182225733Y-64777263D01*
X182108869Y-64929564D01*
X182052441Y-64970767D01*
X181982695Y-64974922D01*
X181937608Y-64954396D01*
X181787557Y-64845379D01*
X181598215Y-64748903D01*
X181396124Y-64683241D01*
X181330000Y-64672768D01*
X181330000Y-65566988D01*
X181272993Y-65534075D01*
X181145826Y-65500000D01*
X181014174Y-65500000D01*
X180887007Y-65534075D01*
X180830000Y-65566988D01*
X180830000Y-64672768D01*
X180829999Y-64672768D01*
X180763875Y-64683241D01*
X180561784Y-64748903D01*
X180372446Y-64845376D01*
X180222391Y-64954397D01*
X180156584Y-64977876D01*
X180088530Y-64962050D01*
X180051130Y-64929564D01*
X179934266Y-64777263D01*
X179934260Y-64777256D01*
X179762743Y-64605739D01*
X179762736Y-64605733D01*
X179570293Y-64458067D01*
X179570292Y-64458066D01*
X179570289Y-64458064D01*
X179360212Y-64336776D01*
X179360205Y-64336773D01*
X179136104Y-64243947D01*
X178901785Y-64181161D01*
X178661289Y-64149500D01*
X178661288Y-64149500D01*
X178418712Y-64149500D01*
X178418711Y-64149500D01*
X178178214Y-64181161D01*
X177943895Y-64243947D01*
X177719794Y-64336773D01*
X177719785Y-64336777D01*
X177509706Y-64458067D01*
X177317263Y-64605733D01*
X177317256Y-64605739D01*
X177145739Y-64777256D01*
X177145733Y-64777263D01*
X177028869Y-64929564D01*
X176972441Y-64970767D01*
X176902695Y-64974922D01*
X176857608Y-64954396D01*
X176707557Y-64845379D01*
X176518215Y-64748903D01*
X176316124Y-64683241D01*
X176250000Y-64672768D01*
X176250000Y-65566988D01*
X176192993Y-65534075D01*
X176065826Y-65500000D01*
X175934174Y-65500000D01*
X175807007Y-65534075D01*
X175750000Y-65566988D01*
X175750000Y-64672768D01*
X175749999Y-64672768D01*
X175683875Y-64683241D01*
X175481784Y-64748903D01*
X175292446Y-64845376D01*
X175142391Y-64954397D01*
X175076584Y-64977876D01*
X175008530Y-64962050D01*
X174971130Y-64929564D01*
X174854266Y-64777263D01*
X174854260Y-64777256D01*
X174682743Y-64605739D01*
X174682736Y-64605733D01*
X174490293Y-64458067D01*
X174490292Y-64458066D01*
X174490289Y-64458064D01*
X174280212Y-64336776D01*
X174280205Y-64336773D01*
X174056104Y-64243947D01*
X173821785Y-64181161D01*
X173581289Y-64149500D01*
X173581288Y-64149500D01*
X173338712Y-64149500D01*
X173338711Y-64149500D01*
X173098214Y-64181161D01*
X172863895Y-64243947D01*
X172639794Y-64336773D01*
X172639785Y-64336777D01*
X172429706Y-64458067D01*
X172237263Y-64605733D01*
X172237256Y-64605739D01*
X172065739Y-64777256D01*
X172065733Y-64777263D01*
X171948869Y-64929564D01*
X171892441Y-64970767D01*
X171822695Y-64974922D01*
X171777608Y-64954396D01*
X171627557Y-64845379D01*
X171438215Y-64748903D01*
X171236124Y-64683241D01*
X171170000Y-64672768D01*
X171170000Y-65566988D01*
X171112993Y-65534075D01*
X170985826Y-65500000D01*
X170854174Y-65500000D01*
X170727007Y-65534075D01*
X170670000Y-65566988D01*
X170670000Y-64672768D01*
X170669999Y-64672768D01*
X170603875Y-64683241D01*
X170401784Y-64748903D01*
X170212446Y-64845376D01*
X170062391Y-64954397D01*
X169996584Y-64977876D01*
X169928530Y-64962050D01*
X169891130Y-64929564D01*
X169774266Y-64777263D01*
X169774260Y-64777256D01*
X169602743Y-64605739D01*
X169602736Y-64605733D01*
X169410293Y-64458067D01*
X169410292Y-64458066D01*
X169410289Y-64458064D01*
X169200212Y-64336776D01*
X169200205Y-64336773D01*
X168976104Y-64243947D01*
X168741785Y-64181161D01*
X168501289Y-64149500D01*
X168501288Y-64149500D01*
X168258712Y-64149500D01*
X168258711Y-64149500D01*
X168018214Y-64181161D01*
X167783895Y-64243947D01*
X167559794Y-64336773D01*
X167559785Y-64336777D01*
X167349706Y-64458067D01*
X167157263Y-64605733D01*
X167157256Y-64605739D01*
X166985739Y-64777256D01*
X166985733Y-64777263D01*
X166868869Y-64929564D01*
X166812441Y-64970767D01*
X166742695Y-64974922D01*
X166697608Y-64954396D01*
X166547557Y-64845379D01*
X166358215Y-64748903D01*
X166156124Y-64683241D01*
X166090000Y-64672768D01*
X166090000Y-65566988D01*
X166032993Y-65534075D01*
X165905826Y-65500000D01*
X165774174Y-65500000D01*
X165647007Y-65534075D01*
X165590000Y-65566988D01*
X165590000Y-64672768D01*
X165589999Y-64672768D01*
X165523875Y-64683241D01*
X165321784Y-64748903D01*
X165132446Y-64845376D01*
X164982391Y-64954397D01*
X164916584Y-64977876D01*
X164848530Y-64962050D01*
X164811130Y-64929564D01*
X164694266Y-64777263D01*
X164694260Y-64777256D01*
X164522743Y-64605739D01*
X164522736Y-64605733D01*
X164330293Y-64458067D01*
X164330292Y-64458066D01*
X164330289Y-64458064D01*
X164120212Y-64336776D01*
X164120205Y-64336773D01*
X163896104Y-64243947D01*
X163661785Y-64181161D01*
X163421289Y-64149500D01*
X163421288Y-64149500D01*
X163178712Y-64149500D01*
X163178711Y-64149500D01*
X162938214Y-64181161D01*
X162703895Y-64243947D01*
X162479794Y-64336773D01*
X162479785Y-64336777D01*
X162269706Y-64458067D01*
X162077263Y-64605733D01*
X162077256Y-64605739D01*
X161905739Y-64777256D01*
X161905733Y-64777263D01*
X161788869Y-64929564D01*
X161732441Y-64970767D01*
X161662695Y-64974922D01*
X161617608Y-64954396D01*
X161467557Y-64845379D01*
X161278215Y-64748903D01*
X161076124Y-64683241D01*
X161010000Y-64672768D01*
X161010000Y-65566988D01*
X160952993Y-65534075D01*
X160825826Y-65500000D01*
X160694174Y-65500000D01*
X160567007Y-65534075D01*
X160510000Y-65566988D01*
X160510000Y-64672768D01*
X160509999Y-64672768D01*
X160443875Y-64683241D01*
X160241784Y-64748903D01*
X160052442Y-64845379D01*
X159880540Y-64970272D01*
X159880535Y-64970276D01*
X159730276Y-65120535D01*
X159730272Y-65120540D01*
X159605379Y-65292442D01*
X159508904Y-65481782D01*
X159443242Y-65683870D01*
X159443242Y-65683873D01*
X159432769Y-65750000D01*
X160326988Y-65750000D01*
X160294075Y-65807007D01*
X160260000Y-65934174D01*
X160260000Y-66065826D01*
X160294075Y-66192993D01*
X160326988Y-66250000D01*
X159432769Y-66250000D01*
X159443242Y-66316126D01*
X159443242Y-66316129D01*
X159508904Y-66518217D01*
X159605379Y-66707557D01*
X159730272Y-66879459D01*
X159730276Y-66879464D01*
X159880535Y-67029723D01*
X159880540Y-67029727D01*
X160052442Y-67154620D01*
X160241782Y-67251095D01*
X160443871Y-67316757D01*
X160510000Y-67327231D01*
X160510000Y-66433012D01*
X160567007Y-66465925D01*
X160694174Y-66500000D01*
X160825826Y-66500000D01*
X160952993Y-66465925D01*
X161010000Y-66433012D01*
X161010000Y-67327230D01*
X161076126Y-67316757D01*
X161076129Y-67316757D01*
X161278217Y-67251095D01*
X161467554Y-67154622D01*
X161574540Y-67076892D01*
X161640346Y-67053412D01*
X161708400Y-67069237D01*
X161757095Y-67119343D01*
X161770971Y-67187821D01*
X161745622Y-67252930D01*
X161735107Y-67264891D01*
X161036319Y-67963681D01*
X160974996Y-67997166D01*
X160948638Y-68000000D01*
X138499999Y-68000000D01*
X137348442Y-69151557D01*
X137287119Y-69185042D01*
X137217427Y-69180058D01*
X137173080Y-69151557D01*
X134399923Y-66378399D01*
X134399868Y-66378346D01*
X134318920Y-66304610D01*
X134318916Y-66304607D01*
X134237345Y-66230304D01*
X134015957Y-66065826D01*
X133937833Y-66007784D01*
X133937830Y-66007782D01*
X133937823Y-66007777D01*
X133616345Y-65818348D01*
X133276553Y-65664163D01*
X133276549Y-65664161D01*
X133276543Y-65664159D01*
X132922302Y-65546970D01*
X132922289Y-65546967D01*
X132557595Y-65468094D01*
X132557589Y-65468093D01*
X132186569Y-65428433D01*
X131813431Y-65428433D01*
X131813430Y-65428433D01*
X131442410Y-65468093D01*
X131442404Y-65468094D01*
X131077710Y-65546967D01*
X131077697Y-65546970D01*
X130723456Y-65664159D01*
X130723447Y-65664163D01*
X130383655Y-65818348D01*
X130062177Y-66007777D01*
X130062173Y-66007779D01*
X130062166Y-66007784D01*
X129762652Y-66230306D01*
X129741032Y-66250000D01*
X129600116Y-66378361D01*
X129600110Y-66378367D01*
X129600076Y-66378399D01*
X122378399Y-73600076D01*
X122378367Y-73600110D01*
X122378361Y-73600116D01*
X122315909Y-73668676D01*
X122230306Y-73762652D01*
X122007784Y-74062166D01*
X122007779Y-74062173D01*
X122007777Y-74062177D01*
X121818348Y-74383655D01*
X121780033Y-74468094D01*
X121664163Y-74723447D01*
X121664159Y-74723456D01*
X121546970Y-75077697D01*
X121546967Y-75077710D01*
X121468094Y-75442404D01*
X121468093Y-75442410D01*
X121428433Y-75813430D01*
X119007253Y-75813430D01*
X119007574Y-75805260D01*
X119009623Y-75753112D01*
X119017265Y-75558646D01*
X119018028Y-75548965D01*
X119067639Y-75129813D01*
X119069162Y-75120198D01*
X119091524Y-75007777D01*
X119151510Y-74706209D01*
X119153773Y-74696784D01*
X119268349Y-74290532D01*
X119271354Y-74281282D01*
X119417448Y-73885277D01*
X119421171Y-73876291D01*
X119473558Y-73762655D01*
X119597886Y-73492966D01*
X119602283Y-73484334D01*
X119808548Y-73116022D01*
X119813604Y-73107772D01*
X120048119Y-72756794D01*
X120053818Y-72748949D01*
X120315150Y-72417448D01*
X120321447Y-72410076D01*
X120609642Y-72098304D01*
X120612967Y-72094846D01*
X120657861Y-72049953D01*
X128594848Y-64112966D01*
X128598306Y-64109640D01*
X128910079Y-63821439D01*
X128917445Y-63815148D01*
X129248944Y-63553815D01*
X129256790Y-63548114D01*
X129607773Y-63313596D01*
X129616015Y-63308545D01*
X129984333Y-63102276D01*
X129992961Y-63097880D01*
X130376295Y-62921161D01*
X130385273Y-62917442D01*
X130781287Y-62771345D01*
X130790531Y-62768342D01*
X131196769Y-62653771D01*
X131206217Y-62651503D01*
X131620202Y-62569156D01*
X131629798Y-62567636D01*
X132048976Y-62518023D01*
X132058642Y-62517262D01*
X132482838Y-62500596D01*
X132487706Y-62500500D01*
X132551173Y-62500500D01*
X219448824Y-62500500D01*
X219512290Y-62500500D01*
X219517158Y-62500595D01*
G37*
%TD.AperFunction*%
%TD*%
M02*
