%TF.GenerationSoftware,KiCad,Pcbnew,10.0.6*%
%TF.CreationDate,2026-09-11T11:31:16+03:00*%
%TF.ProjectId,cap_pad,6361705f-7061-4642-9e6b-696361645f70,rev?*%
%TF.SameCoordinates,Original*%
%TF.FileFunction,Copper,L2,Bot*%
%TF.FilePolarity,Positive*%
%FSLAX46Y46*%
G04 Gerber Fmt 4.6, Leading zero omitted, Abs format (unit mm)*
G04 Created by KiCad (PCBNEW 10.0.6) date 2026-09-11 11:31:16*
%MOMM*%
%LPD*%
G01*
G04 APERTURE LIST*
G04 Aperture macros list*
%AMRoundRect*
0 Rectangle with rounded corners*
0 $1 Rounding radius*
0 $2 $3 $4 $5 $6 $7 $8 $9 X,Y pos of 4 corners*
0 Add a 4 corners polygon primitive as box body*
4,1,4,$2,$3,$4,$5,$6,$7,$8,$9,$2,$3,0*
0 Add four circle primitives for the rounded corners*
1,1,$1+$1,$2,$3*
1,1,$1+$1,$4,$5*
1,1,$1+$1,$6,$7*
1,1,$1+$1,$8,$9*
0 Add four rect primitives between the rounded corners*
20,1,$1+$1,$2,$3,$4,$5,0*
20,1,$1+$1,$4,$5,$6,$7,0*
20,1,$1+$1,$6,$7,$8,$9,0*
20,1,$1+$1,$8,$9,$2,$3,0*%
G04 Aperture macros list end*
%TA.AperFunction,ComponentPad*%
%ADD10C,1.700000*%
%TD*%
%TA.AperFunction,SMDPad,CuDef*%
%ADD11RoundRect,0.250000X-0.625000X0.400000X-0.625000X-0.400000X0.625000X-0.400000X0.625000X0.400000X0*%
%TD*%
%TA.AperFunction,SMDPad,CuDef*%
%ADD12RoundRect,0.250000X-0.400000X-0.625000X0.400000X-0.625000X0.400000X0.625000X-0.400000X0.625000X0*%
%TD*%
%TA.AperFunction,SMDPad,CuDef*%
%ADD13RoundRect,0.250000X-0.159099X0.724784X-0.724784X0.159099X0.159099X-0.724784X0.724784X-0.159099X0*%
%TD*%
%TA.AperFunction,SMDPad,CuDef*%
%ADD14RoundRect,0.250000X-0.724784X-0.159099X-0.159099X-0.724784X0.724784X0.159099X0.159099X0.724784X0*%
%TD*%
%TA.AperFunction,SMDPad,CuDef*%
%ADD15RoundRect,0.250000X0.400000X0.625000X-0.400000X0.625000X-0.400000X-0.625000X0.400000X-0.625000X0*%
%TD*%
%TA.AperFunction,ViaPad*%
%ADD16C,2.500000*%
%TD*%
%TA.AperFunction,ViaPad*%
%ADD17C,2.000000*%
%TD*%
%TA.AperFunction,ViaPad*%
%ADD18C,1.500000*%
%TD*%
%TA.AperFunction,Conductor*%
%ADD19C,0.400000*%
%TD*%
%TA.AperFunction,Conductor*%
%ADD20C,1.500000*%
%TD*%
G04 APERTURE END LIST*
D10*
%TO.P,J6,1,Pin_1_1*%
%TO.N,GND*%
X160760000Y-66000000D03*
%TO.P,J6,2,Pin_2_2*%
%TO.N,Net-(J6-Pin_2)*%
X163300000Y-66000000D03*
%TO.P,J6,3,Pin_3_3*%
%TO.N,GND*%
X165840000Y-66000000D03*
%TO.P,J6,4,Pin_4_4*%
%TO.N,Net-(J6-Pin_4)*%
X168380000Y-66000000D03*
%TO.P,J6,5,Pin_5_5*%
%TO.N,GND*%
X170920000Y-66000000D03*
%TO.P,J6,6,Pin_6_6*%
%TO.N,Net-(J6-Pin_6)*%
X173460000Y-66000000D03*
%TO.P,J6,7,Pin_7_7*%
%TO.N,GND*%
X176000000Y-66000000D03*
%TO.P,J6,8,Pin_8_8*%
%TO.N,Net-(J6-Pin_8)*%
X178540000Y-66000000D03*
%TO.P,J6,9,Pin_9_9*%
%TO.N,GND*%
X181080000Y-66000000D03*
%TO.P,J6,10,Pin_10_10*%
%TO.N,Net-(J6-Pin_10)*%
X183620000Y-66000000D03*
%TO.P,J6,11,Pin_11_11*%
%TO.N,GND*%
X186160000Y-66000000D03*
%TO.P,J6,12,Pin_12_12*%
%TO.N,Net-(J6-Pin_12)*%
X188700000Y-66000000D03*
%TO.P,J6,13,Pin_13_13*%
%TO.N,GND*%
X191240000Y-66000000D03*
%TD*%
D11*
%TO.P,R3,1*%
%TO.N,Net-(J6-Pin_6)*%
X173250000Y-74449999D03*
%TO.P,R3,2*%
%TO.N,Net-(J3-Pin_1)*%
X173250000Y-77550001D03*
%TD*%
D12*
%TO.P,R6,1*%
%TO.N,Net-(J6-Pin_12)*%
X196449999Y-69000000D03*
%TO.P,R6,2*%
%TO.N,Net-(J7-Pin_1)*%
X199550001Y-69000000D03*
%TD*%
D13*
%TO.P,R2,1*%
%TO.N,Net-(J6-Pin_4)*%
X162096016Y-73903984D03*
%TO.P,R2,2*%
%TO.N,Net-(J2-Pin_1)*%
X159903984Y-76096016D03*
%TD*%
D14*
%TO.P,R5,1*%
%TO.N,Net-(J6-Pin_10)*%
X189903984Y-73903984D03*
%TO.P,R5,2*%
%TO.N,Net-(J5-Pin_1)*%
X192096016Y-76096016D03*
%TD*%
D11*
%TO.P,R4,1*%
%TO.N,Net-(J6-Pin_8)*%
X178750000Y-74449999D03*
%TO.P,R4,2*%
%TO.N,Net-(J4-Pin_1)*%
X178750000Y-77550001D03*
%TD*%
D15*
%TO.P,R1,1*%
%TO.N,Net-(J6-Pin_2)*%
X155550001Y-69000000D03*
%TO.P,R1,2*%
%TO.N,Net-(J1-Pin_1)*%
X152449999Y-69000000D03*
%TD*%
D16*
%TO.N,Net-(J1-Pin_1)*%
X131000000Y-77000000D03*
X133000000Y-75000000D03*
%TO.N,Net-(J2-Pin_1)*%
X147000000Y-86000000D03*
X149000000Y-84000000D03*
%TO.N,Net-(J3-Pin_1)*%
X163000000Y-95000000D03*
X165000000Y-93000000D03*
%TO.N,Net-(J4-Pin_1)*%
X187000000Y-93000000D03*
X189000000Y-95000000D03*
%TO.N,Net-(J5-Pin_1)*%
X203000000Y-84000000D03*
X205000000Y-86000000D03*
%TO.N,Net-(J7-Pin_1)*%
X221000000Y-77000000D03*
X219000000Y-75000000D03*
D17*
X219000000Y-75000000D03*
X221000000Y-77000000D03*
%TO.N,Net-(J5-Pin_1)*%
X205000000Y-86000000D03*
X203000000Y-84000000D03*
%TO.N,Net-(J4-Pin_1)*%
X187000000Y-93000000D03*
X189000000Y-95000000D03*
%TO.N,Net-(J3-Pin_1)*%
X163000000Y-95000000D03*
X165000000Y-93000000D03*
%TO.N,Net-(J1-Pin_1)*%
X131000000Y-77000000D03*
X133000000Y-75000000D03*
%TO.N,Net-(J2-Pin_1)*%
X147000000Y-86000000D03*
X149000000Y-84000000D03*
D18*
%TO.N,Net-(J3-Pin_1)*%
X163000000Y-95000000D03*
X165000000Y-93000000D03*
%TO.N,Net-(J5-Pin_1)*%
X203000000Y-84000000D03*
X205000000Y-86000000D03*
%TO.N,Net-(J7-Pin_1)*%
X219000000Y-75000000D03*
X221000000Y-77000000D03*
%TO.N,Net-(J2-Pin_1)*%
X149000000Y-84000000D03*
X147000000Y-86000000D03*
%TO.N,Net-(J4-Pin_1)*%
X187000000Y-93000000D03*
X189000000Y-95000000D03*
%TO.N,Net-(J1-Pin_1)*%
X131000000Y-77000000D03*
X133000000Y-75000000D03*
%TD*%
%TO.N,Net-(J6-Pin_2)*%
D19*
X161500000Y-69000000D02*
X163300000Y-67200000D01*
X163300000Y-67200000D02*
X163300000Y-66000000D01*
X155550001Y-69000000D02*
X161500000Y-69000000D01*
%TO.N,Net-(J6-Pin_4)*%
X168380000Y-67620000D02*
X168380000Y-66000000D01*
X162096016Y-73903984D02*
X168380000Y-67620000D01*
%TO.N,Net-(J6-Pin_6)*%
X173250000Y-66210000D02*
X173460000Y-66000000D01*
X173250000Y-74449999D02*
X173250000Y-66210000D01*
X173000000Y-66460000D02*
X173460000Y-66000000D01*
%TO.N,Net-(J6-Pin_8)*%
X178750000Y-66210000D02*
X178540000Y-66000000D01*
X178750000Y-74449999D02*
X178750000Y-66210000D01*
X179000000Y-66460000D02*
X178540000Y-66000000D01*
%TO.N,Net-(J6-Pin_10)*%
X189903984Y-73903984D02*
X183620000Y-67620000D01*
X183620000Y-67620000D02*
X183620000Y-66000000D01*
%TO.N,Net-(J6-Pin_12)*%
X188700000Y-66000000D02*
X188700000Y-67200000D01*
X190500000Y-69000000D02*
X196449999Y-69000000D01*
X188700000Y-67200000D02*
X190500000Y-69000000D01*
%TO.N,Net-(J3-Pin_1)*%
X173250000Y-77550001D02*
X173250000Y-84750000D01*
X173250000Y-84750000D02*
X173000000Y-85000000D01*
D20*
X165000000Y-93000000D02*
X163000000Y-95000000D01*
D19*
X170903984Y-87096016D02*
X165000000Y-93000000D01*
X173000000Y-85000000D02*
X170903984Y-87096016D01*
%TO.N,Net-(J5-Pin_1)*%
X192096016Y-76096016D02*
X200000000Y-84000000D01*
D20*
X203000000Y-84000000D02*
X205000000Y-86000000D01*
D19*
X203000000Y-84000000D02*
X200000000Y-84000000D01*
%TO.N,Net-(J7-Pin_1)*%
D20*
X219000000Y-75000000D02*
X221000000Y-77000000D01*
D19*
X199550001Y-69000000D02*
X213000000Y-69000000D01*
X213000000Y-69000000D02*
X219000000Y-75000000D01*
%TO.N,Net-(J2-Pin_1)*%
D20*
X149000000Y-84000000D02*
X147000000Y-86000000D01*
D19*
X149000000Y-84000000D02*
X152000000Y-84000000D01*
X159903984Y-76096016D02*
X152000000Y-84000000D01*
%TO.N,Net-(J4-Pin_1)*%
X179000000Y-85000000D02*
X187000000Y-93000000D01*
X178750000Y-84750000D02*
X179000000Y-85000000D01*
X178750000Y-77550001D02*
X178750000Y-84750000D01*
D20*
X187000000Y-93000000D02*
X189000000Y-95000000D01*
%TO.N,Net-(J1-Pin_1)*%
X133000000Y-75000000D02*
X131000000Y-77000000D01*
D19*
X139000000Y-69000000D02*
X133000000Y-75000000D01*
X152449999Y-69000000D02*
X139000000Y-69000000D01*
%TD*%
%TA.AperFunction,Conductor*%
%TO.N,GND*%
G36*
X219517158Y-62500595D02*
G01*
X219941351Y-62517265D01*
X219951024Y-62518026D01*
X220311580Y-62560702D01*
X220370185Y-62567639D01*
X220379801Y-62569162D01*
X220542782Y-62601581D01*
X220793785Y-62651509D01*
X220803221Y-62653774D01*
X221209436Y-62768340D01*
X221209457Y-62768346D01*
X221218717Y-62771354D01*
X221614713Y-62917445D01*
X221623709Y-62921171D01*
X222007023Y-63097881D01*
X222015675Y-63102289D01*
X222383966Y-63308541D01*
X222392235Y-63313609D01*
X222743193Y-63548110D01*
X222751060Y-63553826D01*
X223082527Y-63815131D01*
X223089931Y-63821454D01*
X223401681Y-64109629D01*
X223405191Y-64113005D01*
X231386998Y-72094812D01*
X231390373Y-72098321D01*
X231678552Y-72410069D01*
X231684875Y-72417473D01*
X231946176Y-72748929D01*
X231951899Y-72756806D01*
X232186395Y-73107751D01*
X232191482Y-73116053D01*
X232397710Y-73484298D01*
X232402131Y-73492973D01*
X232578842Y-73876289D01*
X232582568Y-73885285D01*
X232728655Y-74281273D01*
X232731663Y-74290532D01*
X232846230Y-74696757D01*
X232848503Y-74706225D01*
X232930842Y-75120177D01*
X232932366Y-75129794D01*
X232981977Y-75548965D01*
X232982740Y-75558671D01*
X232999403Y-75982833D01*
X232999499Y-75987701D01*
X232999499Y-76061158D01*
X232999500Y-76061171D01*
X232999500Y-77012294D01*
X232999404Y-77017162D01*
X232982738Y-77441337D01*
X232981974Y-77451044D01*
X232932364Y-77870191D01*
X232930841Y-77879807D01*
X232848498Y-78293771D01*
X232846225Y-78303239D01*
X232731659Y-78709460D01*
X232728651Y-78718720D01*
X232582560Y-79114716D01*
X232578834Y-79123711D01*
X232402125Y-79507023D01*
X232397706Y-79515694D01*
X232191471Y-79883952D01*
X232186390Y-79892245D01*
X231951895Y-80243192D01*
X231946172Y-80251068D01*
X231684867Y-80582533D01*
X231678544Y-80589937D01*
X231390384Y-80901666D01*
X231387009Y-80905176D01*
X206950044Y-105342142D01*
X206950043Y-105342143D01*
X206905186Y-105386999D01*
X206901678Y-105390373D01*
X206589930Y-105678552D01*
X206582526Y-105684875D01*
X206251070Y-105946176D01*
X206243193Y-105951899D01*
X205892248Y-106186395D01*
X205883946Y-106191482D01*
X205515701Y-106397710D01*
X205507026Y-106402131D01*
X205123710Y-106578842D01*
X205114714Y-106582568D01*
X204718726Y-106728655D01*
X204709467Y-106731663D01*
X204303242Y-106846230D01*
X204293774Y-106848503D01*
X203879822Y-106930842D01*
X203870205Y-106932366D01*
X203451034Y-106981977D01*
X203441328Y-106982740D01*
X203017166Y-106999403D01*
X203012298Y-106999499D01*
X202941235Y-106999499D01*
X202941219Y-106999500D01*
X149527731Y-106999500D01*
X149527715Y-106999499D01*
X149456645Y-106999499D01*
X149451833Y-106999406D01*
X149032406Y-106983117D01*
X149022808Y-106982370D01*
X148608318Y-106933873D01*
X148598807Y-106932384D01*
X148189318Y-106851876D01*
X148179951Y-106849653D01*
X148175824Y-106848503D01*
X148131180Y-106836061D01*
X147777963Y-106737625D01*
X147768796Y-106734683D01*
X147376684Y-106591797D01*
X147367774Y-106588152D01*
X146987948Y-106415285D01*
X146979347Y-106410960D01*
X146614068Y-106209144D01*
X146605829Y-106204165D01*
X146586572Y-106191482D01*
X146257308Y-105974619D01*
X146249480Y-105969016D01*
X145919816Y-105713121D01*
X145912450Y-105706931D01*
X145888184Y-105684875D01*
X145601848Y-105424612D01*
X145598370Y-105421326D01*
X145553068Y-105376818D01*
X145553066Y-105376817D01*
X145546143Y-105370015D01*
X145546125Y-105370000D01*
X129073697Y-89186562D01*
X120692835Y-80952732D01*
X120692834Y-80952731D01*
X120647581Y-80908272D01*
X120644139Y-80904753D01*
X120350099Y-80591979D01*
X120343645Y-80584543D01*
X120076885Y-80251346D01*
X120071041Y-80243421D01*
X119831557Y-79890105D01*
X119826361Y-79881742D01*
X119721015Y-79696146D01*
X119615664Y-79510540D01*
X119611157Y-79501811D01*
X119430565Y-79115039D01*
X119426761Y-79105968D01*
X119413509Y-79070483D01*
X119277438Y-78706119D01*
X119274362Y-78696766D01*
X119238080Y-78569627D01*
X119157230Y-78286318D01*
X119154907Y-78276753D01*
X119112791Y-78067445D01*
X119070706Y-77858289D01*
X119069154Y-77848601D01*
X119018421Y-77424778D01*
X119017641Y-77414969D01*
X119004561Y-77085778D01*
X119000598Y-76986024D01*
X119000500Y-76981101D01*
X119000500Y-75987704D01*
X119000596Y-75982835D01*
X119002200Y-75942006D01*
X119017265Y-75558646D01*
X119018028Y-75548965D01*
X119067639Y-75129813D01*
X119069162Y-75120198D01*
X119093071Y-75000000D01*
X119151510Y-74706209D01*
X119153773Y-74696784D01*
X119209273Y-74499999D01*
X122000000Y-74499999D01*
X122000000Y-74500000D01*
X122000000Y-77500000D01*
X130500000Y-86000000D01*
X133500000Y-86000000D01*
X142000000Y-77500000D01*
X142000000Y-74500000D01*
X138686562Y-71186562D01*
X138653077Y-71125239D01*
X138658061Y-71055547D01*
X138686562Y-71011200D01*
X138832667Y-70865096D01*
X139234131Y-70463631D01*
X139460945Y-70236819D01*
X139522268Y-70203334D01*
X139548626Y-70200500D01*
X150862477Y-70200500D01*
X150929516Y-70220185D01*
X150964405Y-70253884D01*
X151086173Y-70429645D01*
X151086177Y-70429650D01*
X151086180Y-70429654D01*
X151245345Y-70588819D01*
X151245349Y-70588822D01*
X151245353Y-70588825D01*
X151384602Y-70685297D01*
X151430373Y-70717007D01*
X151635316Y-70810096D01*
X151635320Y-70810097D01*
X151853578Y-70865094D01*
X151853580Y-70865094D01*
X151853587Y-70865096D01*
X151985782Y-70875500D01*
X152914215Y-70875499D01*
X153046411Y-70865096D01*
X153264682Y-70810096D01*
X153469625Y-70717007D01*
X153654653Y-70588819D01*
X153813818Y-70429654D01*
X153898072Y-70308041D01*
X153952430Y-70264144D01*
X154021892Y-70256605D01*
X154084403Y-70287816D01*
X154101928Y-70308041D01*
X154186175Y-70429645D01*
X154186179Y-70429650D01*
X154186182Y-70429654D01*
X154345347Y-70588819D01*
X154345351Y-70588822D01*
X154345355Y-70588825D01*
X154484604Y-70685297D01*
X154530375Y-70717007D01*
X154735318Y-70810096D01*
X154735322Y-70810097D01*
X154953580Y-70865094D01*
X154953582Y-70865094D01*
X154953589Y-70865096D01*
X155085784Y-70875500D01*
X156014217Y-70875499D01*
X156146413Y-70865096D01*
X156364684Y-70810096D01*
X156569627Y-70717007D01*
X156754655Y-70588819D01*
X156913820Y-70429654D01*
X156998074Y-70308041D01*
X157035595Y-70253884D01*
X157089954Y-70209987D01*
X157137523Y-70200500D01*
X161594486Y-70200500D01*
X161781118Y-70170940D01*
X161960832Y-70112547D01*
X162129199Y-70026760D01*
X162282074Y-69915690D01*
X164215690Y-67982074D01*
X164326760Y-67829199D01*
X164412547Y-67660832D01*
X164470940Y-67481118D01*
X164471693Y-67476359D01*
X164501620Y-67413225D01*
X164518688Y-67397373D01*
X164522735Y-67394267D01*
X164522738Y-67394265D01*
X164694265Y-67222738D01*
X164811132Y-67070433D01*
X164867557Y-67029232D01*
X164937303Y-67025077D01*
X164982391Y-67045603D01*
X165132442Y-67154620D01*
X165321782Y-67251095D01*
X165523871Y-67316757D01*
X165590000Y-67327231D01*
X165590000Y-66433012D01*
X165647007Y-66465925D01*
X165774174Y-66500000D01*
X165905826Y-66500000D01*
X166032993Y-66465925D01*
X166090000Y-66433012D01*
X166090000Y-67327230D01*
X166156126Y-67316757D01*
X166156129Y-67316757D01*
X166358217Y-67251095D01*
X166547554Y-67154622D01*
X166697606Y-67045603D01*
X166763413Y-67022123D01*
X166831467Y-67037948D01*
X166868868Y-67070434D01*
X166950357Y-67176633D01*
X166960244Y-67189517D01*
X166985438Y-67254687D01*
X166971400Y-67323131D01*
X166949549Y-67352685D01*
X162369680Y-71932554D01*
X162308357Y-71966039D01*
X162259858Y-71966880D01*
X162049468Y-71928700D01*
X162049464Y-71928700D01*
X161824370Y-71928700D01*
X161824366Y-71928700D01*
X161602894Y-71968891D01*
X161602893Y-71968891D01*
X161392151Y-72047985D01*
X161392149Y-72047987D01*
X161198919Y-72163435D01*
X161198912Y-72163441D01*
X161098106Y-72249537D01*
X161098080Y-72249561D01*
X160441595Y-72906048D01*
X160355465Y-73006891D01*
X160240019Y-73200117D01*
X160240017Y-73200119D01*
X160160923Y-73410861D01*
X160160923Y-73410862D01*
X160120732Y-73632334D01*
X160120732Y-73857435D01*
X160147148Y-74003000D01*
X160139750Y-74072477D01*
X160095965Y-74126925D01*
X160029693Y-74149057D01*
X160003000Y-74147148D01*
X159857436Y-74120732D01*
X159857432Y-74120732D01*
X159632338Y-74120732D01*
X159632334Y-74120732D01*
X159410862Y-74160923D01*
X159410861Y-74160923D01*
X159200119Y-74240017D01*
X159200117Y-74240019D01*
X159006887Y-74355467D01*
X159006880Y-74355473D01*
X158906074Y-74441569D01*
X158906048Y-74441593D01*
X158249563Y-75098080D01*
X158163433Y-75198923D01*
X158047987Y-75392149D01*
X158047985Y-75392151D01*
X157968891Y-75602893D01*
X157968891Y-75602894D01*
X157928700Y-75824366D01*
X157928700Y-76049467D01*
X157966880Y-76259858D01*
X157959482Y-76329335D01*
X157932554Y-76369680D01*
X154488798Y-79813436D01*
X154427475Y-79846921D01*
X154357783Y-79841937D01*
X154313436Y-79813436D01*
X149500000Y-75000000D01*
X146500000Y-75000000D01*
X146499999Y-75000000D01*
X138000000Y-83499999D01*
X138000000Y-83500000D01*
X138000000Y-86500000D01*
X146500000Y-95000000D01*
X149500000Y-95000000D01*
X158000000Y-86500000D01*
X158000000Y-83500000D01*
X156186562Y-81686562D01*
X156153077Y-81625239D01*
X156158061Y-81555547D01*
X156186562Y-81511200D01*
X157884326Y-79813436D01*
X159630319Y-78067443D01*
X159691640Y-78033960D01*
X159740139Y-78033119D01*
X159950532Y-78071300D01*
X159950536Y-78071300D01*
X160175633Y-78071300D01*
X160345264Y-78040516D01*
X160397107Y-78031108D01*
X160607847Y-77952015D01*
X160801079Y-77836565D01*
X160901912Y-77750446D01*
X161558412Y-77093944D01*
X161644533Y-76993111D01*
X161759983Y-76799879D01*
X161839076Y-76589139D01*
X161878902Y-76369680D01*
X161879268Y-76367665D01*
X161879268Y-76142565D01*
X161857369Y-76021893D01*
X161852851Y-75996998D01*
X161860248Y-75927523D01*
X161904034Y-75873074D01*
X161970305Y-75850942D01*
X161996996Y-75852850D01*
X162058757Y-75864058D01*
X162142565Y-75879268D01*
X162142568Y-75879268D01*
X162367665Y-75879268D01*
X162513232Y-75852851D01*
X162589139Y-75839076D01*
X162799879Y-75759983D01*
X162993111Y-75644533D01*
X163093944Y-75558414D01*
X163750444Y-74901912D01*
X163836565Y-74801079D01*
X163952015Y-74607847D01*
X164031108Y-74397107D01*
X164050447Y-74290542D01*
X164071300Y-74175633D01*
X164071300Y-73950532D01*
X164033119Y-73740139D01*
X164040517Y-73670662D01*
X164067442Y-73630320D01*
X169295690Y-68402074D01*
X169406760Y-68249199D01*
X169492547Y-68080832D01*
X169550940Y-67901118D01*
X169558957Y-67850500D01*
X169562353Y-67829059D01*
X169580500Y-67714486D01*
X169580500Y-67467865D01*
X169600185Y-67400826D01*
X169616814Y-67380188D01*
X169774265Y-67222738D01*
X169891132Y-67070433D01*
X169947557Y-67029232D01*
X170017303Y-67025077D01*
X170062391Y-67045603D01*
X170212442Y-67154620D01*
X170401782Y-67251095D01*
X170603871Y-67316757D01*
X170670000Y-67327231D01*
X170670000Y-66433012D01*
X170727007Y-66465925D01*
X170854174Y-66500000D01*
X170985826Y-66500000D01*
X171112993Y-66465925D01*
X171170000Y-66433012D01*
X171170000Y-67327230D01*
X171236126Y-67316757D01*
X171236129Y-67316757D01*
X171438217Y-67251095D01*
X171627554Y-67154622D01*
X171777606Y-67045602D01*
X171843412Y-67022122D01*
X171911466Y-67037947D01*
X171948866Y-67070431D01*
X172023876Y-67168186D01*
X172049070Y-67233355D01*
X172049500Y-67243672D01*
X172049500Y-72862476D01*
X172029815Y-72929515D01*
X171996117Y-72964404D01*
X171820350Y-73086177D01*
X171820342Y-73086183D01*
X171661184Y-73245341D01*
X171661174Y-73245353D01*
X171532997Y-73430366D01*
X171532991Y-73430376D01*
X171439903Y-73635317D01*
X171439902Y-73635320D01*
X171384905Y-73853578D01*
X171384904Y-73853585D01*
X171374500Y-73985776D01*
X171374500Y-74914207D01*
X171374501Y-74914222D01*
X171384904Y-75046412D01*
X171384905Y-75046419D01*
X171439902Y-75264677D01*
X171439903Y-75264680D01*
X171532991Y-75469621D01*
X171532997Y-75469631D01*
X171661174Y-75654644D01*
X171661178Y-75654649D01*
X171661181Y-75654653D01*
X171820346Y-75813818D01*
X171856804Y-75839076D01*
X171941958Y-75898072D01*
X171985854Y-75952431D01*
X171993393Y-76021893D01*
X171962182Y-76084404D01*
X171941958Y-76101928D01*
X171820350Y-76186179D01*
X171820342Y-76186185D01*
X171661184Y-76345343D01*
X171661174Y-76345355D01*
X171532997Y-76530368D01*
X171532991Y-76530378D01*
X171439903Y-76735319D01*
X171439902Y-76735322D01*
X171384905Y-76953580D01*
X171384904Y-76953587D01*
X171374500Y-77085778D01*
X171374500Y-78014209D01*
X171374501Y-78014224D01*
X171384904Y-78146414D01*
X171384905Y-78146421D01*
X171439902Y-78364679D01*
X171439903Y-78364682D01*
X171532991Y-78569623D01*
X171532997Y-78569633D01*
X171661174Y-78754646D01*
X171661178Y-78754651D01*
X171661181Y-78754655D01*
X171820346Y-78913820D01*
X171820350Y-78913823D01*
X171820354Y-78913826D01*
X171996116Y-79035594D01*
X172040013Y-79089952D01*
X172049500Y-79137522D01*
X172049500Y-84201374D01*
X172029815Y-84268413D01*
X172013181Y-84289055D01*
X170121910Y-86180326D01*
X168988798Y-87313436D01*
X168927475Y-87346921D01*
X168857783Y-87341937D01*
X168813436Y-87313436D01*
X165500000Y-84000000D01*
X162500000Y-84000000D01*
X162499999Y-84000000D01*
X154000000Y-92499999D01*
X154000000Y-92500000D01*
X154000000Y-95500000D01*
X162500000Y-104000000D01*
X165500000Y-104000000D01*
X174000000Y-95500000D01*
X174000000Y-92500000D01*
X170686562Y-89186562D01*
X170653077Y-89125239D01*
X170658061Y-89055547D01*
X170686562Y-89011200D01*
X171819674Y-87878090D01*
X172384328Y-87313436D01*
X173915690Y-85782074D01*
X173915691Y-85782073D01*
X174165690Y-85532074D01*
X174276760Y-85379199D01*
X174362547Y-85210832D01*
X174420940Y-85031118D01*
X174421848Y-85025388D01*
X174450499Y-84844486D01*
X174450500Y-84844486D01*
X174450500Y-79137522D01*
X174470185Y-79070483D01*
X174503884Y-79035594D01*
X174679645Y-78913826D01*
X174679654Y-78913820D01*
X174838819Y-78754655D01*
X174967007Y-78569627D01*
X175060096Y-78364684D01*
X175115096Y-78146413D01*
X175125500Y-78014218D01*
X175125499Y-77085785D01*
X175115096Y-76953589D01*
X175060096Y-76735318D01*
X174967007Y-76530375D01*
X174838819Y-76345347D01*
X174679654Y-76186182D01*
X174679650Y-76186179D01*
X174679645Y-76186175D01*
X174558041Y-76101928D01*
X174514144Y-76047570D01*
X174506605Y-75978108D01*
X174537816Y-75915597D01*
X174558041Y-75898072D01*
X174679645Y-75813824D01*
X174679654Y-75813818D01*
X174838819Y-75654653D01*
X174967007Y-75469625D01*
X175060096Y-75264682D01*
X175115096Y-75046411D01*
X175125500Y-74914216D01*
X175125499Y-73985783D01*
X175115096Y-73853587D01*
X175083717Y-73729059D01*
X175060097Y-73635320D01*
X175060096Y-73635317D01*
X175058741Y-73632334D01*
X174967007Y-73430373D01*
X174838819Y-73245345D01*
X174679654Y-73086180D01*
X174632876Y-73053772D01*
X174503883Y-72964404D01*
X174459987Y-72910045D01*
X174450500Y-72862476D01*
X174450500Y-67633617D01*
X174470185Y-67566578D01*
X174499014Y-67535241D01*
X174511684Y-67525519D01*
X174682738Y-67394265D01*
X174854265Y-67222738D01*
X174971132Y-67070433D01*
X175027557Y-67029232D01*
X175097303Y-67025077D01*
X175142391Y-67045603D01*
X175292442Y-67154620D01*
X175481782Y-67251095D01*
X175683871Y-67316757D01*
X175750000Y-67327231D01*
X175750000Y-66433012D01*
X175807007Y-66465925D01*
X175934174Y-66500000D01*
X176065826Y-66500000D01*
X176192993Y-66465925D01*
X176250000Y-66433012D01*
X176250000Y-67327230D01*
X176316126Y-67316757D01*
X176316129Y-67316757D01*
X176518217Y-67251095D01*
X176707554Y-67154622D01*
X176857606Y-67045603D01*
X176923413Y-67022123D01*
X176991467Y-67037948D01*
X177028868Y-67070434D01*
X177093466Y-67154620D01*
X177145733Y-67222736D01*
X177145739Y-67222743D01*
X177317256Y-67394260D01*
X177317263Y-67394266D01*
X177500986Y-67535241D01*
X177542189Y-67591669D01*
X177549500Y-67633617D01*
X177549500Y-72862476D01*
X177529815Y-72929515D01*
X177496117Y-72964404D01*
X177320350Y-73086177D01*
X177320342Y-73086183D01*
X177161184Y-73245341D01*
X177161174Y-73245353D01*
X177032997Y-73430366D01*
X177032991Y-73430376D01*
X176939903Y-73635317D01*
X176939902Y-73635320D01*
X176884905Y-73853578D01*
X176884904Y-73853585D01*
X176874500Y-73985776D01*
X176874500Y-74914207D01*
X176874501Y-74914222D01*
X176884904Y-75046412D01*
X176884905Y-75046419D01*
X176939902Y-75264677D01*
X176939903Y-75264680D01*
X177032991Y-75469621D01*
X177032997Y-75469631D01*
X177161174Y-75654644D01*
X177161178Y-75654649D01*
X177161181Y-75654653D01*
X177320346Y-75813818D01*
X177356804Y-75839076D01*
X177441958Y-75898072D01*
X177485854Y-75952431D01*
X177493393Y-76021893D01*
X177462182Y-76084404D01*
X177441958Y-76101928D01*
X177320350Y-76186179D01*
X177320342Y-76186185D01*
X177161184Y-76345343D01*
X177161174Y-76345355D01*
X177032997Y-76530368D01*
X177032991Y-76530378D01*
X176939903Y-76735319D01*
X176939902Y-76735322D01*
X176884905Y-76953580D01*
X176884904Y-76953587D01*
X176874500Y-77085778D01*
X176874500Y-78014209D01*
X176874501Y-78014224D01*
X176884904Y-78146414D01*
X176884905Y-78146421D01*
X176939902Y-78364679D01*
X176939903Y-78364682D01*
X177032991Y-78569623D01*
X177032997Y-78569633D01*
X177161174Y-78754646D01*
X177161178Y-78754651D01*
X177161181Y-78754655D01*
X177320346Y-78913820D01*
X177320350Y-78913823D01*
X177320354Y-78913826D01*
X177496116Y-79035594D01*
X177540013Y-79089952D01*
X177549500Y-79137522D01*
X177549500Y-84844486D01*
X177579059Y-85031118D01*
X177637454Y-85210836D01*
X177723240Y-85379199D01*
X177834310Y-85532074D01*
X177834312Y-85532076D01*
X181313436Y-89011200D01*
X181346921Y-89072523D01*
X181341937Y-89142215D01*
X181313436Y-89186562D01*
X178000000Y-92499999D01*
X178000000Y-92500000D01*
X178000000Y-95500000D01*
X186500000Y-104000000D01*
X189500000Y-104000000D01*
X198000000Y-95500000D01*
X198000000Y-92500000D01*
X189500000Y-84000000D01*
X186500000Y-84000000D01*
X186499999Y-84000000D01*
X183186562Y-87313436D01*
X183125239Y-87346921D01*
X183055547Y-87341937D01*
X183011200Y-87313436D01*
X179986819Y-84289055D01*
X179953334Y-84227732D01*
X179950500Y-84201374D01*
X179950500Y-79137522D01*
X179970185Y-79070483D01*
X180003884Y-79035594D01*
X180179645Y-78913826D01*
X180179654Y-78913820D01*
X180338819Y-78754655D01*
X180467007Y-78569627D01*
X180560096Y-78364684D01*
X180615096Y-78146413D01*
X180625500Y-78014218D01*
X180625499Y-77085785D01*
X180615096Y-76953589D01*
X180560096Y-76735318D01*
X180467007Y-76530375D01*
X180338819Y-76345347D01*
X180179654Y-76186182D01*
X180179650Y-76186179D01*
X180179645Y-76186175D01*
X180058041Y-76101928D01*
X180014144Y-76047570D01*
X180006605Y-75978108D01*
X180037816Y-75915597D01*
X180058041Y-75898072D01*
X180179645Y-75813824D01*
X180179654Y-75813818D01*
X180338819Y-75654653D01*
X180467007Y-75469625D01*
X180560096Y-75264682D01*
X180615096Y-75046411D01*
X180625500Y-74914216D01*
X180625499Y-73985783D01*
X180615096Y-73853587D01*
X180583717Y-73729059D01*
X180560097Y-73635320D01*
X180560096Y-73635317D01*
X180558741Y-73632334D01*
X180467007Y-73430373D01*
X180338819Y-73245345D01*
X180179654Y-73086180D01*
X180132876Y-73053772D01*
X180003883Y-72964404D01*
X179959987Y-72910045D01*
X179950500Y-72862476D01*
X179950500Y-67243672D01*
X179970185Y-67176633D01*
X179976124Y-67168186D01*
X179986532Y-67154622D01*
X180051132Y-67070433D01*
X180107557Y-67029232D01*
X180177303Y-67025077D01*
X180222391Y-67045603D01*
X180372442Y-67154620D01*
X180561782Y-67251095D01*
X180763871Y-67316757D01*
X180830000Y-67327231D01*
X180830000Y-66433012D01*
X180887007Y-66465925D01*
X181014174Y-66500000D01*
X181145826Y-66500000D01*
X181272993Y-66465925D01*
X181330000Y-66433012D01*
X181330000Y-67327230D01*
X181396126Y-67316757D01*
X181396129Y-67316757D01*
X181598217Y-67251095D01*
X181787554Y-67154622D01*
X181937606Y-67045603D01*
X182003413Y-67022123D01*
X182071467Y-67037948D01*
X182108868Y-67070434D01*
X182173466Y-67154620D01*
X182225735Y-67222738D01*
X182383182Y-67380185D01*
X182416666Y-67441507D01*
X182419500Y-67467865D01*
X182419500Y-67714486D01*
X182449059Y-67901118D01*
X182507454Y-68080836D01*
X182593240Y-68249199D01*
X182704310Y-68402074D01*
X182704312Y-68402076D01*
X187932554Y-73630318D01*
X187966039Y-73691641D01*
X187966880Y-73740140D01*
X187928700Y-73950532D01*
X187928700Y-74175633D01*
X187968891Y-74397105D01*
X187968891Y-74397106D01*
X188047985Y-74607848D01*
X188047987Y-74607850D01*
X188163435Y-74801080D01*
X188163441Y-74801087D01*
X188249537Y-74901893D01*
X188249547Y-74901904D01*
X188249554Y-74901912D01*
X188906056Y-75558412D01*
X189006889Y-75644533D01*
X189200121Y-75759983D01*
X189410861Y-75839076D01*
X189632334Y-75879268D01*
X189632338Y-75879268D01*
X189857435Y-75879268D01*
X189927747Y-75866507D01*
X190003001Y-75852851D01*
X190072476Y-75860248D01*
X190126925Y-75904033D01*
X190149057Y-75970305D01*
X190147148Y-75996999D01*
X190120732Y-76142564D01*
X190120732Y-76367665D01*
X190160923Y-76589137D01*
X190160923Y-76589138D01*
X190240017Y-76799880D01*
X190240019Y-76799882D01*
X190355467Y-76993112D01*
X190355473Y-76993119D01*
X190441569Y-77093925D01*
X190441579Y-77093936D01*
X190441586Y-77093944D01*
X191098088Y-77750444D01*
X191198921Y-77836565D01*
X191392153Y-77952015D01*
X191557517Y-78014078D01*
X191602893Y-78031108D01*
X191824366Y-78071300D01*
X191824370Y-78071300D01*
X192049467Y-78071300D01*
X192259859Y-78033119D01*
X192329336Y-78040516D01*
X192369681Y-78067445D01*
X195813437Y-81511201D01*
X195846922Y-81572524D01*
X195841938Y-81642216D01*
X195813437Y-81686563D01*
X194000000Y-83499999D01*
X194000000Y-83500000D01*
X194000000Y-86500000D01*
X202500000Y-95000000D01*
X205500000Y-95000000D01*
X214000000Y-86500000D01*
X214000000Y-83500000D01*
X205500000Y-75000000D01*
X202500000Y-75000000D01*
X202499999Y-75000000D01*
X197686563Y-79813437D01*
X197625240Y-79846922D01*
X197555548Y-79841938D01*
X197511201Y-79813437D01*
X194067445Y-76369681D01*
X194033960Y-76308358D01*
X194033119Y-76259859D01*
X194071300Y-76049467D01*
X194071300Y-75824366D01*
X194031108Y-75602894D01*
X194031108Y-75602893D01*
X194014421Y-75558430D01*
X193952015Y-75392153D01*
X193836565Y-75198921D01*
X193836564Y-75198919D01*
X193836558Y-75198912D01*
X193750462Y-75098106D01*
X193750453Y-75098096D01*
X193750446Y-75098088D01*
X193093944Y-74441588D01*
X192993111Y-74355467D01*
X192799881Y-74240018D01*
X192799880Y-74240017D01*
X192589138Y-74160923D01*
X192367666Y-74120732D01*
X192367662Y-74120732D01*
X192142568Y-74120732D01*
X192142564Y-74120732D01*
X191996999Y-74147148D01*
X191927522Y-74139750D01*
X191873074Y-74095965D01*
X191850942Y-74029693D01*
X191852851Y-74003000D01*
X191874213Y-73885286D01*
X191879268Y-73857434D01*
X191879268Y-73632334D01*
X191839076Y-73410862D01*
X191839076Y-73410861D01*
X191776956Y-73245345D01*
X191759983Y-73200121D01*
X191644533Y-73006889D01*
X191644532Y-73006887D01*
X191644526Y-73006880D01*
X191558430Y-72906074D01*
X191558421Y-72906064D01*
X191558414Y-72906056D01*
X190901912Y-72249556D01*
X190801079Y-72163435D01*
X190607849Y-72047986D01*
X190607848Y-72047985D01*
X190397106Y-71968891D01*
X190175634Y-71928700D01*
X190175630Y-71928700D01*
X189950536Y-71928700D01*
X189950532Y-71928700D01*
X189740140Y-71966880D01*
X189670663Y-71959482D01*
X189630318Y-71932554D01*
X185050450Y-67352686D01*
X185016965Y-67291363D01*
X185021949Y-67221671D01*
X185039755Y-67189519D01*
X185081662Y-67134904D01*
X185131132Y-67070433D01*
X185187557Y-67029232D01*
X185257303Y-67025077D01*
X185302391Y-67045603D01*
X185452442Y-67154620D01*
X185641782Y-67251095D01*
X185843871Y-67316757D01*
X185910000Y-67327231D01*
X185910000Y-66433012D01*
X185967007Y-66465925D01*
X186094174Y-66500000D01*
X186225826Y-66500000D01*
X186352993Y-66465925D01*
X186410000Y-66433012D01*
X186410000Y-67327231D01*
X186476126Y-67316757D01*
X186476129Y-67316757D01*
X186678217Y-67251095D01*
X186867554Y-67154622D01*
X187017606Y-67045603D01*
X187083413Y-67022123D01*
X187151467Y-67037948D01*
X187188868Y-67070434D01*
X187253466Y-67154620D01*
X187305733Y-67222736D01*
X187305739Y-67222743D01*
X187477256Y-67394260D01*
X187477263Y-67394266D01*
X187481311Y-67397372D01*
X187522518Y-67453797D01*
X187528305Y-67476351D01*
X187529059Y-67481116D01*
X187529060Y-67481118D01*
X187587453Y-67660832D01*
X187673240Y-67829199D01*
X187784310Y-67982074D01*
X189717926Y-69915690D01*
X189870801Y-70026760D01*
X189950347Y-70067290D01*
X190039163Y-70112545D01*
X190039165Y-70112545D01*
X190039168Y-70112547D01*
X190135497Y-70143846D01*
X190218881Y-70170940D01*
X190405514Y-70200500D01*
X190405519Y-70200500D01*
X194862477Y-70200500D01*
X194929516Y-70220185D01*
X194964405Y-70253884D01*
X195086173Y-70429645D01*
X195086177Y-70429650D01*
X195086180Y-70429654D01*
X195245345Y-70588819D01*
X195245349Y-70588822D01*
X195245353Y-70588825D01*
X195384602Y-70685297D01*
X195430373Y-70717007D01*
X195635316Y-70810096D01*
X195635320Y-70810097D01*
X195853578Y-70865094D01*
X195853580Y-70865094D01*
X195853587Y-70865096D01*
X195985782Y-70875500D01*
X196914215Y-70875499D01*
X197046411Y-70865096D01*
X197264682Y-70810096D01*
X197469625Y-70717007D01*
X197654653Y-70588819D01*
X197813818Y-70429654D01*
X197898072Y-70308041D01*
X197952430Y-70264144D01*
X198021892Y-70256605D01*
X198084403Y-70287816D01*
X198101928Y-70308041D01*
X198186175Y-70429645D01*
X198186179Y-70429650D01*
X198186182Y-70429654D01*
X198345347Y-70588819D01*
X198345351Y-70588822D01*
X198345355Y-70588825D01*
X198484604Y-70685297D01*
X198530375Y-70717007D01*
X198735318Y-70810096D01*
X198735322Y-70810097D01*
X198953580Y-70865094D01*
X198953582Y-70865094D01*
X198953589Y-70865096D01*
X199085784Y-70875500D01*
X200014217Y-70875499D01*
X200146413Y-70865096D01*
X200364684Y-70810096D01*
X200569627Y-70717007D01*
X200754655Y-70588819D01*
X200913820Y-70429654D01*
X200998074Y-70308041D01*
X201035595Y-70253884D01*
X201089954Y-70209987D01*
X201137523Y-70200500D01*
X212451374Y-70200500D01*
X212518413Y-70220185D01*
X212539055Y-70236819D01*
X213313437Y-71011201D01*
X213346922Y-71072524D01*
X213341938Y-71142216D01*
X213313437Y-71186563D01*
X210000000Y-74499999D01*
X210000000Y-74500000D01*
X210000000Y-77500000D01*
X218500000Y-86000000D01*
X221500000Y-86000000D01*
X230000000Y-77500000D01*
X230000000Y-74500000D01*
X221500000Y-66000000D01*
X218500000Y-66000000D01*
X218499999Y-66000000D01*
X215186563Y-69313437D01*
X215125240Y-69346922D01*
X215055548Y-69341938D01*
X215011201Y-69313437D01*
X213782076Y-68084312D01*
X213782074Y-68084310D01*
X213629199Y-67973240D01*
X213460836Y-67887454D01*
X213281118Y-67829059D01*
X213094486Y-67799500D01*
X213094481Y-67799500D01*
X201137523Y-67799500D01*
X201070484Y-67779815D01*
X201035595Y-67746116D01*
X200913826Y-67570354D01*
X200913823Y-67570350D01*
X200913820Y-67570346D01*
X200754655Y-67411181D01*
X200754651Y-67411178D01*
X200754646Y-67411174D01*
X200569633Y-67282997D01*
X200569631Y-67282995D01*
X200569627Y-67282993D01*
X200548921Y-67273588D01*
X200364682Y-67189903D01*
X200364679Y-67189902D01*
X200146421Y-67134905D01*
X200146414Y-67134904D01*
X200102348Y-67131436D01*
X200014218Y-67124500D01*
X200014216Y-67124500D01*
X199085792Y-67124500D01*
X199085777Y-67124501D01*
X198953587Y-67134904D01*
X198953580Y-67134905D01*
X198735322Y-67189902D01*
X198735319Y-67189903D01*
X198530378Y-67282991D01*
X198530368Y-67282997D01*
X198345355Y-67411174D01*
X198345343Y-67411184D01*
X198186185Y-67570342D01*
X198186179Y-67570350D01*
X198101928Y-67691958D01*
X198047569Y-67735854D01*
X197978107Y-67743393D01*
X197915596Y-67712182D01*
X197898072Y-67691958D01*
X197854886Y-67629625D01*
X197813818Y-67570346D01*
X197654653Y-67411181D01*
X197654649Y-67411178D01*
X197654644Y-67411174D01*
X197469631Y-67282997D01*
X197469629Y-67282995D01*
X197469625Y-67282993D01*
X197448919Y-67273588D01*
X197264680Y-67189903D01*
X197264677Y-67189902D01*
X197046419Y-67134905D01*
X197046412Y-67134904D01*
X197002346Y-67131436D01*
X196914216Y-67124500D01*
X196914214Y-67124500D01*
X195985790Y-67124500D01*
X195985775Y-67124501D01*
X195853585Y-67134904D01*
X195853578Y-67134905D01*
X195635320Y-67189902D01*
X195635317Y-67189903D01*
X195430376Y-67282991D01*
X195430366Y-67282997D01*
X195245353Y-67411174D01*
X195245341Y-67411184D01*
X195086183Y-67570342D01*
X195086173Y-67570354D01*
X194964405Y-67746116D01*
X194910046Y-67790013D01*
X194862477Y-67799500D01*
X191048626Y-67799500D01*
X190981587Y-67779815D01*
X190960945Y-67763181D01*
X190682717Y-67484953D01*
X190649232Y-67423630D01*
X190654216Y-67353938D01*
X190696088Y-67298005D01*
X190761552Y-67273588D01*
X190808716Y-67279341D01*
X190923872Y-67316757D01*
X190990000Y-67327231D01*
X190990000Y-66433012D01*
X191047007Y-66465925D01*
X191174174Y-66500000D01*
X191305826Y-66500000D01*
X191432993Y-66465925D01*
X191490000Y-66433012D01*
X191490000Y-67327230D01*
X191556126Y-67316757D01*
X191556129Y-67316757D01*
X191758217Y-67251095D01*
X191947557Y-67154620D01*
X192119459Y-67029727D01*
X192119464Y-67029723D01*
X192269723Y-66879464D01*
X192269727Y-66879459D01*
X192394620Y-66707557D01*
X192491095Y-66518217D01*
X192556757Y-66316129D01*
X192556757Y-66316126D01*
X192567231Y-66250000D01*
X191673012Y-66250000D01*
X191705925Y-66192993D01*
X191740000Y-66065826D01*
X191740000Y-65934174D01*
X191705925Y-65807007D01*
X191673012Y-65750000D01*
X192567231Y-65750000D01*
X192556757Y-65683873D01*
X192556757Y-65683870D01*
X192491095Y-65481782D01*
X192394620Y-65292442D01*
X192269727Y-65120540D01*
X192269723Y-65120535D01*
X192119464Y-64970276D01*
X192119459Y-64970272D01*
X191947557Y-64845379D01*
X191758215Y-64748903D01*
X191556124Y-64683241D01*
X191490000Y-64672768D01*
X191490000Y-65566988D01*
X191432993Y-65534075D01*
X191305826Y-65500000D01*
X191174174Y-65500000D01*
X191047007Y-65534075D01*
X190990000Y-65566988D01*
X190990000Y-64672768D01*
X190989999Y-64672768D01*
X190923875Y-64683241D01*
X190721784Y-64748903D01*
X190532446Y-64845376D01*
X190382391Y-64954397D01*
X190316584Y-64977876D01*
X190248530Y-64962050D01*
X190211130Y-64929564D01*
X190094266Y-64777263D01*
X190094260Y-64777256D01*
X189922743Y-64605739D01*
X189922736Y-64605733D01*
X189730293Y-64458067D01*
X189730292Y-64458066D01*
X189730289Y-64458064D01*
X189520212Y-64336776D01*
X189520205Y-64336773D01*
X189296104Y-64243947D01*
X189061785Y-64181161D01*
X188821289Y-64149500D01*
X188821288Y-64149500D01*
X188578712Y-64149500D01*
X188578711Y-64149500D01*
X188338214Y-64181161D01*
X188103895Y-64243947D01*
X187879794Y-64336773D01*
X187879785Y-64336777D01*
X187669706Y-64458067D01*
X187477263Y-64605733D01*
X187477256Y-64605739D01*
X187305739Y-64777256D01*
X187305733Y-64777263D01*
X187188869Y-64929564D01*
X187132441Y-64970767D01*
X187062695Y-64974922D01*
X187017608Y-64954396D01*
X186867557Y-64845379D01*
X186678215Y-64748903D01*
X186476124Y-64683241D01*
X186410000Y-64672768D01*
X186410000Y-65566988D01*
X186352993Y-65534075D01*
X186225826Y-65500000D01*
X186094174Y-65500000D01*
X185967007Y-65534075D01*
X185910000Y-65566988D01*
X185910000Y-64672768D01*
X185909999Y-64672768D01*
X185843875Y-64683241D01*
X185641784Y-64748903D01*
X185452446Y-64845376D01*
X185302391Y-64954397D01*
X185236584Y-64977876D01*
X185168530Y-64962050D01*
X185131130Y-64929564D01*
X185014266Y-64777263D01*
X185014260Y-64777256D01*
X184842743Y-64605739D01*
X184842736Y-64605733D01*
X184650293Y-64458067D01*
X184650292Y-64458066D01*
X184650289Y-64458064D01*
X184440212Y-64336776D01*
X184440205Y-64336773D01*
X184216104Y-64243947D01*
X183981785Y-64181161D01*
X183741289Y-64149500D01*
X183741288Y-64149500D01*
X183498712Y-64149500D01*
X183498711Y-64149500D01*
X183258214Y-64181161D01*
X183023895Y-64243947D01*
X182799794Y-64336773D01*
X182799785Y-64336777D01*
X182589706Y-64458067D01*
X182397263Y-64605733D01*
X182397256Y-64605739D01*
X182225739Y-64777256D01*
X182225733Y-64777263D01*
X182108869Y-64929564D01*
X182052441Y-64970767D01*
X181982695Y-64974922D01*
X181937608Y-64954396D01*
X181787557Y-64845379D01*
X181598215Y-64748903D01*
X181396124Y-64683241D01*
X181330000Y-64672768D01*
X181330000Y-65566988D01*
X181272993Y-65534075D01*
X181145826Y-65500000D01*
X181014174Y-65500000D01*
X180887007Y-65534075D01*
X180830000Y-65566988D01*
X180830000Y-64672768D01*
X180829999Y-64672768D01*
X180763875Y-64683241D01*
X180561784Y-64748903D01*
X180372446Y-64845376D01*
X180222391Y-64954397D01*
X180156584Y-64977876D01*
X180088530Y-64962050D01*
X180051130Y-64929564D01*
X179934266Y-64777263D01*
X179934260Y-64777256D01*
X179762743Y-64605739D01*
X179762736Y-64605733D01*
X179570293Y-64458067D01*
X179570292Y-64458066D01*
X179570289Y-64458064D01*
X179360212Y-64336776D01*
X179360205Y-64336773D01*
X179136104Y-64243947D01*
X178901785Y-64181161D01*
X178661289Y-64149500D01*
X178661288Y-64149500D01*
X178418712Y-64149500D01*
X178418711Y-64149500D01*
X178178214Y-64181161D01*
X177943895Y-64243947D01*
X177719794Y-64336773D01*
X177719785Y-64336777D01*
X177509706Y-64458067D01*
X177317263Y-64605733D01*
X177317256Y-64605739D01*
X177145739Y-64777256D01*
X177145733Y-64777263D01*
X177028869Y-64929564D01*
X176972441Y-64970767D01*
X176902695Y-64974922D01*
X176857608Y-64954396D01*
X176707557Y-64845379D01*
X176518215Y-64748903D01*
X176316124Y-64683241D01*
X176250000Y-64672768D01*
X176250000Y-65566988D01*
X176192993Y-65534075D01*
X176065826Y-65500000D01*
X175934174Y-65500000D01*
X175807007Y-65534075D01*
X175750000Y-65566988D01*
X175750000Y-64672768D01*
X175749999Y-64672768D01*
X175683875Y-64683241D01*
X175481784Y-64748903D01*
X175292446Y-64845376D01*
X175142391Y-64954397D01*
X175076584Y-64977876D01*
X175008530Y-64962050D01*
X174971130Y-64929564D01*
X174854266Y-64777263D01*
X174854260Y-64777256D01*
X174682743Y-64605739D01*
X174682736Y-64605733D01*
X174490293Y-64458067D01*
X174490292Y-64458066D01*
X174490289Y-64458064D01*
X174280212Y-64336776D01*
X174280205Y-64336773D01*
X174056104Y-64243947D01*
X173821785Y-64181161D01*
X173581289Y-64149500D01*
X173581288Y-64149500D01*
X173338712Y-64149500D01*
X173338711Y-64149500D01*
X173098214Y-64181161D01*
X172863895Y-64243947D01*
X172639794Y-64336773D01*
X172639785Y-64336777D01*
X172429706Y-64458067D01*
X172237263Y-64605733D01*
X172237256Y-64605739D01*
X172065739Y-64777256D01*
X172065733Y-64777263D01*
X171948869Y-64929564D01*
X171892441Y-64970767D01*
X171822695Y-64974922D01*
X171777608Y-64954396D01*
X171627557Y-64845379D01*
X171438215Y-64748903D01*
X171236124Y-64683241D01*
X171170000Y-64672768D01*
X171170000Y-65566988D01*
X171112993Y-65534075D01*
X170985826Y-65500000D01*
X170854174Y-65500000D01*
X170727007Y-65534075D01*
X170670000Y-65566988D01*
X170670000Y-64672768D01*
X170669999Y-64672768D01*
X170603875Y-64683241D01*
X170401784Y-64748903D01*
X170212446Y-64845376D01*
X170062391Y-64954397D01*
X169996584Y-64977876D01*
X169928530Y-64962050D01*
X169891130Y-64929564D01*
X169774266Y-64777263D01*
X169774260Y-64777256D01*
X169602743Y-64605739D01*
X169602736Y-64605733D01*
X169410293Y-64458067D01*
X169410292Y-64458066D01*
X169410289Y-64458064D01*
X169200212Y-64336776D01*
X169200205Y-64336773D01*
X168976104Y-64243947D01*
X168741785Y-64181161D01*
X168501289Y-64149500D01*
X168501288Y-64149500D01*
X168258712Y-64149500D01*
X168258711Y-64149500D01*
X168018214Y-64181161D01*
X167783895Y-64243947D01*
X167559794Y-64336773D01*
X167559785Y-64336777D01*
X167349706Y-64458067D01*
X167157263Y-64605733D01*
X167157256Y-64605739D01*
X166985739Y-64777256D01*
X166985733Y-64777263D01*
X166868869Y-64929564D01*
X166812441Y-64970767D01*
X166742695Y-64974922D01*
X166697608Y-64954396D01*
X166547557Y-64845379D01*
X166358215Y-64748903D01*
X166156124Y-64683241D01*
X166090000Y-64672768D01*
X166090000Y-65566988D01*
X166032993Y-65534075D01*
X165905826Y-65500000D01*
X165774174Y-65500000D01*
X165647007Y-65534075D01*
X165590000Y-65566988D01*
X165590000Y-64672768D01*
X165589999Y-64672768D01*
X165523875Y-64683241D01*
X165321784Y-64748903D01*
X165132446Y-64845376D01*
X164982391Y-64954397D01*
X164916584Y-64977876D01*
X164848530Y-64962050D01*
X164811130Y-64929564D01*
X164694266Y-64777263D01*
X164694260Y-64777256D01*
X164522743Y-64605739D01*
X164522736Y-64605733D01*
X164330293Y-64458067D01*
X164330292Y-64458066D01*
X164330289Y-64458064D01*
X164120212Y-64336776D01*
X164120205Y-64336773D01*
X163896104Y-64243947D01*
X163661785Y-64181161D01*
X163421289Y-64149500D01*
X163421288Y-64149500D01*
X163178712Y-64149500D01*
X163178711Y-64149500D01*
X162938214Y-64181161D01*
X162703895Y-64243947D01*
X162479794Y-64336773D01*
X162479785Y-64336777D01*
X162269706Y-64458067D01*
X162077263Y-64605733D01*
X162077256Y-64605739D01*
X161905739Y-64777256D01*
X161905733Y-64777263D01*
X161788869Y-64929564D01*
X161732441Y-64970767D01*
X161662695Y-64974922D01*
X161617608Y-64954396D01*
X161467557Y-64845379D01*
X161278215Y-64748903D01*
X161076124Y-64683241D01*
X161010000Y-64672768D01*
X161010000Y-65566988D01*
X160952993Y-65534075D01*
X160825826Y-65500000D01*
X160694174Y-65500000D01*
X160567007Y-65534075D01*
X160510000Y-65566988D01*
X160510000Y-64672768D01*
X160509999Y-64672768D01*
X160443875Y-64683241D01*
X160241784Y-64748903D01*
X160052442Y-64845379D01*
X159880540Y-64970272D01*
X159880535Y-64970276D01*
X159730276Y-65120535D01*
X159730272Y-65120540D01*
X159605379Y-65292442D01*
X159508904Y-65481782D01*
X159443242Y-65683870D01*
X159443242Y-65683873D01*
X159432769Y-65750000D01*
X160326988Y-65750000D01*
X160294075Y-65807007D01*
X160260000Y-65934174D01*
X160260000Y-66065826D01*
X160294075Y-66192993D01*
X160326988Y-66250000D01*
X159432769Y-66250000D01*
X159443242Y-66316126D01*
X159443242Y-66316129D01*
X159508904Y-66518217D01*
X159605379Y-66707557D01*
X159730272Y-66879459D01*
X159730276Y-66879464D01*
X159880535Y-67029723D01*
X159880540Y-67029727D01*
X160052442Y-67154620D01*
X160241782Y-67251095D01*
X160443871Y-67316757D01*
X160510000Y-67327231D01*
X160510000Y-66433012D01*
X160567007Y-66465925D01*
X160694174Y-66500000D01*
X160825826Y-66500000D01*
X160952993Y-66465925D01*
X161010000Y-66433012D01*
X161010000Y-67327230D01*
X161076126Y-67316757D01*
X161076129Y-67316757D01*
X161191282Y-67279342D01*
X161261123Y-67277347D01*
X161320956Y-67313427D01*
X161351784Y-67376128D01*
X161343819Y-67445543D01*
X161317281Y-67484954D01*
X161039055Y-67763181D01*
X160977732Y-67796666D01*
X160951374Y-67799500D01*
X157137523Y-67799500D01*
X157070484Y-67779815D01*
X157035595Y-67746116D01*
X156913826Y-67570354D01*
X156913823Y-67570350D01*
X156913820Y-67570346D01*
X156754655Y-67411181D01*
X156754651Y-67411178D01*
X156754646Y-67411174D01*
X156569633Y-67282997D01*
X156569631Y-67282995D01*
X156569627Y-67282993D01*
X156548921Y-67273588D01*
X156364682Y-67189903D01*
X156364679Y-67189902D01*
X156146421Y-67134905D01*
X156146414Y-67134904D01*
X156102348Y-67131436D01*
X156014218Y-67124500D01*
X156014216Y-67124500D01*
X155085792Y-67124500D01*
X155085777Y-67124501D01*
X154953587Y-67134904D01*
X154953580Y-67134905D01*
X154735322Y-67189902D01*
X154735319Y-67189903D01*
X154530378Y-67282991D01*
X154530368Y-67282997D01*
X154345355Y-67411174D01*
X154345343Y-67411184D01*
X154186185Y-67570342D01*
X154186179Y-67570350D01*
X154101928Y-67691958D01*
X154047569Y-67735854D01*
X153978107Y-67743393D01*
X153915596Y-67712182D01*
X153898072Y-67691958D01*
X153854886Y-67629625D01*
X153813818Y-67570346D01*
X153654653Y-67411181D01*
X153654649Y-67411178D01*
X153654644Y-67411174D01*
X153469631Y-67282997D01*
X153469629Y-67282995D01*
X153469625Y-67282993D01*
X153448919Y-67273588D01*
X153264680Y-67189903D01*
X153264677Y-67189902D01*
X153046419Y-67134905D01*
X153046412Y-67134904D01*
X153002346Y-67131436D01*
X152914216Y-67124500D01*
X152914214Y-67124500D01*
X151985790Y-67124500D01*
X151985775Y-67124501D01*
X151853585Y-67134904D01*
X151853578Y-67134905D01*
X151635320Y-67189902D01*
X151635317Y-67189903D01*
X151430376Y-67282991D01*
X151430366Y-67282997D01*
X151245353Y-67411174D01*
X151245341Y-67411184D01*
X151086183Y-67570342D01*
X151086173Y-67570354D01*
X150964405Y-67746116D01*
X150910046Y-67790013D01*
X150862477Y-67799500D01*
X138905514Y-67799500D01*
X138718881Y-67829059D01*
X138539163Y-67887454D01*
X138370800Y-67973240D01*
X138217923Y-68084312D01*
X136988798Y-69313436D01*
X136927475Y-69346921D01*
X136857783Y-69341937D01*
X136813436Y-69313436D01*
X133500000Y-66000000D01*
X130500000Y-66000000D01*
X130499999Y-66000000D01*
X122000000Y-74499999D01*
X119209273Y-74499999D01*
X119268349Y-74290532D01*
X119271354Y-74281282D01*
X119417448Y-73885277D01*
X119421171Y-73876291D01*
X119429864Y-73857435D01*
X119597886Y-73492966D01*
X119602283Y-73484334D01*
X119808548Y-73116022D01*
X119813604Y-73107772D01*
X120048119Y-72756794D01*
X120053818Y-72748949D01*
X120315150Y-72417448D01*
X120321447Y-72410076D01*
X120609642Y-72098304D01*
X120612967Y-72094846D01*
X120657861Y-72049953D01*
X128594848Y-64112966D01*
X128598306Y-64109640D01*
X128910079Y-63821439D01*
X128917445Y-63815148D01*
X129248944Y-63553815D01*
X129256790Y-63548114D01*
X129607773Y-63313596D01*
X129616015Y-63308545D01*
X129984333Y-63102276D01*
X129992961Y-63097880D01*
X130376295Y-62921161D01*
X130385273Y-62917442D01*
X130781287Y-62771345D01*
X130790531Y-62768342D01*
X131196769Y-62653771D01*
X131206217Y-62651503D01*
X131620202Y-62569156D01*
X131629798Y-62567636D01*
X132048976Y-62518023D01*
X132058642Y-62517262D01*
X132482838Y-62500596D01*
X132487706Y-62500500D01*
X132551173Y-62500500D01*
X219448824Y-62500500D01*
X219512290Y-62500500D01*
X219517158Y-62500595D01*
G37*
%TD.AperFunction*%
%TD*%
M02*
